<svg xmlns="http://www.w3.org/2000/svg" width="882" height="292"><path d="M198.4 276.2c-.1-.7.4-2-.8-1.6-.1.9.1 1.5.8 1.6m93.5-129.5c-.2-.7 1-2-1.8-1.6-.3.9.2 1.5 1.8 1.6m-10.9 10c-.1-.7.4-2-1-1.6-.1.9.1 1.5 1 1.6m-47.8 119.7c-.4.1-1.1 0-1.1.5.4-.1 1.1 0 1.1-.5m-3.2 6.4c-.1-1.6 1.5-4.3-.6-4.8.7 2.2-1.4 4.5.6 4.8m18.7-1.1c.8-.1 2 .2 2.2-.5-.4-.1-.6-.4-.5-1.1h-1.1c0 .8-.3 1.2-.6 1.6m1.7 4.3c.1-1.1 1.4-1 1.6-2.1-1.7.2-1.9-1-3.8-.6.2 1.3-.1 2.1-1.1 2.2.6 1.3.5 1.8 0 3.7 1 0 1.4.4 1.6 1.1 2.5-1.4-.8-4.4 1.1-5.3 0-.7.8-.4 0 0-.1.6.1.9.6 1m-15.6-1c-.4.4-.6 1.2-.6 2.1 1.7.5 1-1.2 1.1-2.1h-.5m-65.6-5.6c.3-1.4.7-1.9-.6-2.7-1.1.9-.9 1.8-2.6 1-.3 1.2 1 .8 1 1.7 1.5 0 1.1-.9 2.2 0m5.9-2.2c0-.5-1-.7-1.1 0 .6 0 .8.8 1.1 0m-8.1 2.2c-2.1.1.1 2.3 0 0m2.2 4.2c.4-1.4-1.1-1-1.6-1.6-.4 1.5 1.1 1.1 1.6 1.6m3.2-.5c-.4.1-1.1 0-1.1.5.4-.1 1.1 0 1.1-.5m0 7.5c.1-1.2.3-5.2-1.1-3.2 1.8.8-1.2 3.2 1.1 3.2"/><path d="M171.3 289c0-.5-.9-.7-1 0 .1.7.5.3 1 0m-8 0c-.4.1-1.1 0-1.1.5.4-.1 1.1 0 1.1-.5m5.7 1c-.4 4.3 2.5.5 0 0m26-14.4c.7.7-.4-.4 0 0zm6.1-2c.6.7-.4-.4 0 0zm-15.2 0c-.4-.4.7.7 0 0zm-4 0c.6.7-.5-.4 0 0zm-8.1 0c.6.7-.5-.4 0 0zm13.2 1.7c-.6.2-1.5 0-1.5.7.6-.1 1.5 0 1.5-.7zm19.1-7.7c1.2 4 1.2-4 0 0zm-26.6 8.4c-.3-.3.5.5 0 0zm-66.2-2.2c-.3-.3.5.5 0 0zm60.3-2.2c-3.1-.7-.2 2.2 0 0zm14.1-1.5c-.5.2-1.4 0-1.5.7.6-.1 1.5 0 1.5-.7zm-14.1 1.5c.9-.2.7-1.5 0-1.5v1.5zm0-1.5c-.9-2.3-4 .8 0 0zm-4.5 0c-.3-.3.5.5 0 0zm-1.5 0c-.3-.3.5.5 0 0zm-32-.7c-3.1-.8-.1 2.2 0 0zm43.9 0c-1.3.7-2.4-2.3-2.9 0 1.3.6 2.3 2.4 2.9 0zm-27.5-.8c-3.1-.7-.2 2.2 0 0zm-15.6 0c-.7-.1-.7.3-.8.8.7.1.7-.3.8-.8zm59.5 0c-.3-.3.5.5 0 0zm-43.9 0c3.1.7.2-2.2 0 0zm-15.6 0c1-.5-.1-.9 0 0zm-14.2 0c-.3-.3.5.5 0 0zm67.8-.7c-.3-.3.5.5 0 0zm-11.9 0c-.4-.3.4.5 0 0zm-7.5 0c-.3-.3.5.5 0 0zm3.7-.8c0-.7-1.3-.9-1.5 0 .9-.1 1.2 1.1 1.5 0zm2.3-1.5c-1.1.5 0 .9 0 0zm-6 .8c-.3-.3.5.5 0 0zm7.5 0c.5-1.7-2.1-3.5-1.5-.8.6.2.7.8 1.5.8zm-9.7-1.5c-.3-.3.5.5 0 0zm2.2-.8c.5.5-.3-.3 0 0zm-4.5.8h1.5v-1.5h-1.5v1.5zm36.5-1.5c.5.5-.3-.3 0 0zm-23.1-.7c.5-3-.6 4.4 0 0zm-7.4-.8c-.6.2-1.5 0-1.5.8.6-.2 1.5-.1 1.5-.8zm3.7 0c.5.5-.3-.3 0 0zm-3 0c.5.5-.3-.3 0 0zm12.7-1.5c-.3-.3.5.5 0 0zm-23.8 0c-1.8 2.5 2.5-1.8 0 0zm20.1-.7c0-.8-1.3-1-1.5 0 .8-.1 1.1 1.1 1.5 0zm-11.2.7h1.5v-1.5h-1.5v1.5zm2.2-1.5c-.3-.3.5.5 0 0zm-13.4-.7c-.5.2-1.4 0-1.4.7.5-.1 1.4 0 1.4-.7zm14.9 0c-.3-.3.5.5 0 0zm-78.9 0c-.3-.3.5.5 0 0zm81.2-.8c.8 3 .8-2.9 0 0zm-6 0c-.3-.3.5.5 0 0zm4.5-1.4c-.6.1-1.5 0-1.5.7.6-.2 1.5 0 1.5-.7zm-4.5 0c-.3-.4.5.5 0 0zm-2.2 0c.8 2.9.8-3 0 0zm-5.2 0c-.3-.4.5.5 0 0zm-3.8 0c-.3-.4.5.5 0 0zm-3.7 0c-.3-.4.5.5 0 0zm20.9-1.5c1.8 3.8 1.9-2.6 0 0zm-7.5 0c-.3-.3.5.5 0 0zm-11.9 0c-.3-.3.5.5 0 0zm28.3-1.5c-2.3 2.5 2.8 2.2 0 0zm-3.7 2.2c.6-2.4-1.2-2.3-2.3-3 .4 1.5.3 3.2 2.3 3zm-8.2-3c-.6 4.5 3.4.5 0 0zm-21.6 0c-.3-.3.5.5 0 0zm-44.7-.7c-.3-.3.5.5 0 0zm74.5-.7c-.3-.4.5.4 0 0zm-10.4-.8c-3.1-.7-.2 2.2 0 0zm3.7 0c-.9.1-1.2-1.1-1.5 0 0 .8 1.3.9 1.5 0zm-3.7 0c1-.4-.1-.9 0 0zm-9.7-.7c-1.1.4.1.9 0 0zm0 0c1.1-.5-.1-.9 0 0zm12.6-1.5c-.8.1-2.1-.1-2.2.7.9-.1 2.1.2 2.2-.7zm-5.2.7c.9 3 .9-2.9 0 0zm-5.2-1.5c.5.5-.3-.3 0 0zm19.4-.7c.5.5-.3-.3 0 0zm-9.7 0c.9 2.9.9-2.9 0 0zm5.2-.8c.5.5-.3-.3 0 0zm11.9-.7c.9 2.9.9-2.9 0 0zm-75.9 0c.5.5-.3-.3 0 0zm42.4-1.5c.5.5-.3-.3 0 0zm-38 0c.5.5-.3-.3 0 0zm59.6-1.5c-.3-.3.5.5 0 0zm-16.4 0c-.3-.3.5.5 0 0zm-28.3-1.5c0-.7-1.3-.9-1.5 0 .9 0 1.2 1.1 1.5 0zm-17.8 0c-1.8 2.5 2.5-1.8 0 0zm3.7 0c1.3.1 1.9-.5 2.2-1.4-1.1 0-2.6-.1-2.2 1.4zm61.8-1.4c-.3-.4.5.4 0 0zm-17.9 0c-.3-.4.5.4 0 0zm-15.6 0c-.3-.4.5.4 0 0zm17.1-2.3c-.3-.3.5.5 0 0zm-49.1.8c.9 0 1 .9 2.2.7 0-1.3-.6-1.9-1.5-2.2 0 .7-.6.9-.7 1.5zm-6.7-.8c.8 3 .8-2.9 0 0zm93.8-.7c.8 2.9.8-3 0 0zm-24.6 0c-.3-.3.5.5 0 0zm-73 0c-.3-.3.5.5 0 0zm7.5.7c0-.9.9-1 .7-2.2-.8.1-2.1-.1-2.2.7 1 0 .7 1.3 1.5 1.5zm-12.7-1.5c-.3-.3.5.5 0 0zm81.2-1.5c-.8 4.4 3.2.4 0 0zm-21.6 0c-.3-.3.5.5 0 0zm29-1.4c-.6.1-1.4 0-1.5.7.6-.2 1.5 0 1.5-.7zm-10.4 1.4c1.3.3 1.4-.5 1.5-1.4h-1.5v1.4zm-13.4 0h1.5v-1.4h-1.5v1.4zm-56.6-1.4c-2.2 2.5 2.8 2.2 0 0zm71.5 0c1.1-.5-.1-.9 0 0zm-1.5 0c-.5-1.1-.9 0 0 0zm-2.2 0c0-.8-1.3-1-1.5 0 .8-.1 1.1 1 1.5 0zm-3 0c-.3-.4.5.4 0 0zm-57.3 0c-.3-.4.5.4 0 0zm-4.5 0c-.3-.4.5.4 0 0zm74.4-2.3c.9 3 .9-2.9 0 0zm-3.7 0c-.3-.3.5.5 0 0zm-2.2 0c.9 3 .9-2.9 0 0zm-3 0c0-.7-1.3-.9-1.5 0 .2.9.8.5 1.5 0zm-14.1 3c.3-2.3-1-3-2.3-3.7.1 1.9 1.4 2.6 2.3 3.7zm-43.2-3c-.3-.3.5.5 0 0zm-9.7-.7c-2.2.1.7 3.1 0 0zm-2.2.7c-.3-.3.5.5 0 0zm70.7-.7c-.3-.3.5.5 0 0zm-68.5 0c3.1.7.2-2.2 0 0zm-8.2-.8c.9 2.3 4-.8 0 0zm71.5 0c.9 3 .9-2.9 0 0zm-57.3 0c0-.7-1.3-.9-1.5 0 .8 0 1.1 1.1 1.5 0zm-14.2 0c-.4-1-.9.1 0 0zM219 227c.5.4-.3-.4 0 0zm-37.2.7c1.3 0 1.9-.6 2.2-1.5-1.2.1-2.6-.1-2.2 1.5zm-5.2-1.5c-.6.2-1.5 0-1.5.8.6-.2 1.4-.1 1.5-.8zm-14.2 0c-1.1.5.1.9 0 0zm-35 .8c.5.4-.3-.4 0 0zm-2.2 0c.5.4-.3-.4 0 0zm-14.9 0c.5.4-.3-.4 0 0zm-2.2.7h1.5v-1.5h-1.5v1.5zm-10.4-.7c-.4-.4.4.4 0 0zm125.8-1.5c-.6.1-1.5 0-1.5.7.6-.2 1.4 0 1.5-.7zm-6.7.7c.5.5-.3-.3 0 0zm-54.4 0c1.1-.4-.1-.9 0 0zm-56.6 0c.5.5-.3-.3 0 0zm113.9-.7c.5.5-.3-.3 0 0zm-8.9 0c.5.5-.3-.3 0 0zm-33.5 0v1.5c1.3-.1 2.3.1 3 .7.2-1.5-1-1.5-1.5-2.2.5-.1.9-.1.7-.8-1 0-1.6.4-2.2.8zm-37.2-.8c-.9.1-2.1-.1-2.2.8.8-.1 2.1.1 2.2-.8zm-12.7 0c-1 .5.1.9 0 0zm-17.8 0c-.6.2-1.5 0-1.5.8.6-.2 1.4-.1 1.5-.8zm52.1 0c.5.5-.3-.3 0 0zm-34.3 0c1.1-.4 0-.9 0 0zm57.4-.7c-.4-.3.4.5 0 0zm-3 .7h1.5v-1.5h-1.5v1.5zm-43.9-.7c-.4-.3.4.5 0 0zm-24.6 0c-.8.1-1.2-1.1-1.5 0 0 .7 1.3.9 1.5 0zm96-.8c-.3-.3.5.5 0 0zm-99.7-.7c-.6.2-1.5 0-1.5.7.6-.1 1.4 0 1.5-.7zm-9.7.7c-.3-.3.5.5 0 0zm43.2-.7c-.3-.3.5.5 0 0zm-22.4 0c-.3-.3.5.5 0 0zm-4.4 0c-.3-.3.5.5 0 0zm-11.9 0c-.4-.3.4.5 0 0zm125-.8c-.3-.3.5.5 0 0zm-8.9 0c-.3-.3.5.5 0 0zm-2.2 0c-.4-.3.4.5 0 0zm-38-.7c-1.1.5.1.9 0 0zm-7.5 3c0-1.4 1-1.6.8-3-2.8-.3-2.3 2.2-.8 3zm-3.7-1.5h1.5V221h-1.5v1.5zm-35.7-.8c.9 3 .9-2.9 0 0zM120 221c-2.2.2.7 3.1 0 0zm105-.7c.1 2.2 3-.8 0 0zm-2.3.7c-.3-.3.5.5 0 0zm-49.1-.7v.7c.8-.1.4-.7 0-.7zm-53.6.7c1.1-.5-.1-.9 0 0zm-1.5-.7c-.9.1-2.1-.2-2.2.7.8-.1 2.1.1 2.2-.7zm-4.5 1.4c-1.6.6-2.3-3.4-3.7-.7.3.8 3 2.8 3.7.7zm-9.6-.7c-.4-.3.4.5 0 0zm120.6-.7c-.5-1.1-.9 0 0 0zm-5.3 0c-.3-.4.5.4 0 0zm-39.4.7c2.2-.1-.7-3.1 0 0zm-6.7-.7c-.5-1.1-.9 0 0 0zm-49.1-.8c-.6.2-1.5 0-1.5.8.5-.2 1.4-.1 1.5-.8zm-21.6.8c-.3-.4.5.4 0 0zm112.4-1.5c-1.1.4.1.9 0 0zm-102 1.5c1.3 0 1.9-.6 2.2-1.5-1.3-.1-1.9.5-2.2 1.5zm102-1.5c3.1.7.1-2.3 0 0zm-42.5-.8c-.3-.3.5.5 0 0zm-64.7 0c-.3-.3.5.5 0 0zm13.4 0c.7-2.2-1.7-1.3-3-1.5.5 1 1.6 1.4 3 1.5zm99.7-.7h1.5v-1.5h-1.5v1.5zm-80.4-1.5c-1.1.5.1.9 0 0zm-8.9 0c-.8 3.5 3.5-.8 0 0zm87.1 0c.9 2.9.9-2.9 0 0zm-78.2 0c1.1-.5 0-.9 0 0zm-22.3-.7H117c-.3 1.2.6 1.4 1.5 1.4v-1.4zm-2.2 2.2c-.3-1.7-.5-3.5-3-3 .1 1.9 1.1 2.9 3 3zm68.5-3c-.4-.3.4.5 0 0zm-52.9.8c-.8 0-1.5-3.3-2.2-.8 3 .8-3.1 2.1 0 3 .5-.7 1.3-1.1 2.2-1.5v-.7zm-24.6-2.3c0-.7-1.3-.9-1.5 0 .9-.1 1.2 1.1 1.5 0zm72.2-.7c-5.1-2.1-3.1 2.2 0 0zm-29.7 0c.8 2.9.8-3 0 0zm-35.8-.8c1.2 0 2.9.4 3-.7-1.1-.9-1.9-.9-3 0v.7zm67.8-1.5c.5.5-.3-.3 0 0zm-5.2 0c.5.5-.3-.3 0 0zm-21.6 0c-.3-.3.5.5 0 0zm-35-.7h-.8c.2.8.8.4.8 0zm-6 0h-1.5c-.2 1.3.6 1.4 1.5 1.5v-1.5zm-6.7.7c.5.5-.3-.3 0 0zm113.2-.7c.5.5-.3-.3 0 0zm-32.8 0c.5.5-.3-.3 0 0zm-7.4-.7c-3.1-.8-.2 2.2 0 0zm-8.9 0c.4 1 .9-.1 0 0zm-29.8 0h-.8c.2.8.8.4.8 0zm-3.7 0c.4 1 .9-.1 0 0zm-17.2 0c-.6-.2-.7.2-.7.7.6.1.7-.3.7-.7zm-14.9.7c0-.7-1.3-.9-1.4 0 .1.9.8.5 1.4 0zm-2.9 0c0-.7-1.3-.9-1.5 0 .1.9.8.5 1.5 0zm-29.1 0c.5.5-.3-.3 0 0zm-39.4 0c.5.5-.3-.3 0 0zm150.4-1.5c-.6.2-1.5 0-1.5.8.5-.2 1.4-.1 1.5-.8zm-13.4.8c-.5-1.1-.9 0 0 0zm-3.8 0c.5.4-.3-.4 0 0zm-3.7 0c.5.4-.3-.4 0 0zm-3.7 1.4c0-1 .3-1.6.7-2.2h-1.5c-.8 1.1-.8 1.8.8 2.2zm-3-1.4c.5.4-.3-.4 0 0zm-15.6 0v-.8c-.7-.1-.7.3-.8.8h.8zm-16.4 0c0-.8-.9-.6-1.5-.8 0 .7.9.6 1.5.8zm-17.9 0c.5.4-.3-.4 0 0zm73 0c4-1.1-2.4-2.7 0 0zm-2.2-.8c.4.5-.4-.3 0 0zm-30.6 0c.9 3 .9-2.9 0 0zm-2.2 0c-.2-.9-1.5-.7-1.5 0h1.5zm-18.6 0c.5.5-.3-.3 0 0zm-4.5-.7c0 .7.9.5 1.5.7 0-.7-.9-.6-1.5-.7zm-20.1 0c.5 1.1.9-.1 0 0zm88.6 0c.9 2.9.9-3 0 0zm-24.6 0c.9 2.9.9-3 0 0zm-23.8-.8c-.7 0-.6.9-.7 1.5.7 0 .6-.9.7-1.5zm-11.9.8c.9 2.9.9-3 0 0zm-8.9-.8c-1 1.1-4 1.4-2.3 3h.8c0-.5.1-.9.7-.7.4-.6.8-1.3.8-2.3zm-7.5.8c.5.5-.3-.3 0 0zm-11.9 0c.2-.7-.3-.7-.7-.8-.2.7.3.7.7.8zm-3-.8c-3.1-.7-.1 2.3 0 0zm88.6 0c1.1-.4 0-.9 0 0zm-3.7.8c1.7.2 3.2 1.6 3.7-.8-.6-.1-.7-.7-1.5-.7-.1 1.1-2.2.2-2.2 1.5zm-11.9 0h1.5c1.1-1.9-2.5-2.2-2.2-.8.4.1.8.1.7.8zm-8.9.7c.2-1-.5-2.9-.8-1.5-.2 1 .5 2.9.8 1.5zm-5.2-1.5c-1.8 2.5 2.5-1.8 0 0zm-65.6 0c.5.5-.3-.3 0 0zm74.5-.7c-.3-.3.5.5 0 0zm-3 0c-.3-.3.5.5 0 0zm-11.2 3c2 .5 1.5-1.6 2.3-2.3-2.4.9-1.8-1.1-3-1.5v2.3c.7 0 .6.9.7 1.5zm-20.8-3c.9 2.9.9-3 0 0zm-6.7 0c.9 2.9.9-3 0 0zm-21.6 0c.9 2.9.9-3 0 0zm-3.7-.8c-.2.6-.8.8-.8 1.5h2.3c-.4-.6-.7-1.3-1.5-1.5zm-61.1.8c-.3-.3.5.5 0 0zm137-1.5c-2.2.1.7 3.1 0 0zm-20.1.7c-.3-.3.5.5 0 0zm-2.2.8h1.5v-1.5h-1.5v1.5zm-43.2.7c1.4.3.1 3.4 3 2.3-1.3-2.7.5-1.9.7-4.5-1.9.1-2.6 1.4-3.7 2.2zm-14.9-1.5c-1.8 2.5 2.5-1.8 0 0zm93.8-1.4c-.6.1-1.4 0-1.5.7.6-.2 1.5 0 1.5-.7zm-41.7 4.4c.9-2.9.9 3 0 0zm3.8-4.4c-3.7-.2-3.1 3.8-7.5 2.9v-1.5c-.6-.1-.7-.7-1.5-.7-.6 1.8-3.3 1.7-3 4.5h1.5c.1-.5.1-.9.8-.8.1-.6 0-1.5.7-1.5-.1.6 0 1.5-.7 1.5v.8c1.2.2 1.3-.7 2.2-.8 0-.7 1.3-.9 1.5 0h-1.5c.4 1.5 3.5.2 1.5 2.2 2-.6 3.5-1.1 4.5.8 0-1.2-.4-2.8.7-3-.1.9.2 1.3.8 1.5-.3-1.2.7-1.3.7-2.2-2.7.7-1.3-3.2-.7-3.7zm-5.3 0c-.1 1-2.2.2-2.2 1.4 1.3-.1 3.7.8 3-1.4h-.8zm-49.1 1.4c1.3.1 1.9-.5 2.2-1.4-1.1 0-2.5-.1-2.2 1.4zm87.9-1.4c1.8 1.3-1.3 0-2.3 0 .2 1.2-.7 1.2-.7 2.2 2.2-.7 2.3-.7 4.4 0 1-.9.6-3.1-1.4-3v.8zm-9-.8v1.5c1.3.3 1.4-.6 1.5-1.5h-1.5zm-5.2.8c.9 2.9.9-3 0 0zm-23.1-.8c-.6-.1-.7.3-.7.8.6.1.7-.3.7-.8zm-2.9 0c-1.1.5 0 .9 0 0zm-26.1 0c-.6.2-1.5 0-1.5.8.6-.2 1.5-.1 1.5-.8zm-16.4 0c-.8.1-.4.8 0 .8v-.8zm-7.4 0c-.6.2-1.5 0-1.5.8.6-.2 1.5-.1 1.5-.8zm-6 1.5H91c.1-1.3-.8-1.7-2.3-1.5v1.5zm96.1-1.5c.1-.6-.3-.7-.8-.7-.1.6.3.7.8.7zm-6.7 2.2c1.6-.4 1 1.5 2.2 1.5.6-2.4-1.3-6.1-3-3.7 2.5-.5 1.2 1.5.8 2.2zm-30.6-2.9v.7c1.9.1 1.3-.9 0-.7zm-1.5 0c-.8-.2-1.3.1-1.4.7.8.1 1.3-.2 1.4-.7zm-5.9.7c0-.7-1.3-.9-1.5 0 .8-.1 1.2 1.1 1.5 0zm-34.3 3c3 .9 2.3-1.8 2.3-3.7-2.9-.4.7 3.2-2.3 3.7zm-65.5-3c-.3-.3.5.5 0 0zm113.2.8c1.9.2 3.2-.3 3-2.3-1.9-.1-1.8 1.7-3 2.3zm-3.7-.8c1.2 0 1.9-.6 2.2-1.5-1.3 0-1.9.6-2.2 1.5zm30.5-2.2c-.6.1-1.5 0-1.5.7.6-.1 1.5 0 1.5-.7zm-38 .7c2.9 2.1 3.3-2.7 0 0zm-5.2 0c-.3-.3.5.5 0 0zm-3.7-.7c-.2 3.3 2.9.2 0 0zm-28.3 2.2c-3.5 0-4.7-3.8-7.4-.7 1.7-.2 2.8 4 4.4 1.5-.4 0-.8-.7 0-.8v.8c1 .1 5.4.1 3-.8zm-8.9-1.5c0-.7-1.3-.9-1.5 0 .8-.1 1.1 1.1 1.5 0zm107.2-.7c-.3-.3.5.5 0 0zm-22.4 0c1.1.4 1.9 1.1 3 1.5.6-1.7-2.7-3.1-3-1.5zm-24.5-.8h-.8c.2.9.8.4.8 0zm-17.9 0c.5 1.1.9 0 0 0zm-30.5 0v.8c.8-.2.4-.8 0-.8zm68.5 0c-.3-.3.5.5 0 0zm-20.1 0c1.1-.4-.1-.9 0 0zm-.8 0c-.4-1.1-.9.1 0 0zm-5.9 0c-.3-.3.5.5 0 0zm-3.8 2.3h1.5c.4-1.9 1.3-2.9-1.5-3v3zm-7.4-2.3c.1-.6-.3-.7-.7-.7-.2.6.2.7.7.7zm-5.2.8c.7-3.1-2.2-.2 0 0zm-99-1.5c-.6.2-1.5 0-1.5.7.6-.1 1.5 0 1.5-.7zm151.1-.8h-.7c-.1 1.9.9 1.3.7 0zm-11.9.8c-.3-.3.5.5 0 0zm-11.9 0c0-.8-1.3-.9-1.5 0 .8-.1 1.1 1.1 1.5 0zm-23.8 0c-.9-2.3-4 .8 0 0zm-11.2 8.9c-.3-.3.5.5 0 0zm3.7-.7c.9-3 .9 2.9 0 0zm1.5-1.5c.9-3 .9 2.9 0 0zm-6.7 0c.9-3 .9 2.9 0 0zm-8.2-2.2c0-.8.9-.6 1.5-.8 0 .7-.9.6-1.5.8zm22.3.7c-1.6-.4-1 1.4-2.2 1.5-2-2 .9-1.6.8-3.7-3.6-.1-1.8 1.7-3 2.9-1.7-1.9-4.7.3-4.5-2.2-2.8.4-2.3 0-3.7 2.2-.1-1.1.3-2.8-.8-2.9-.4 1.8-4.6-2.7-5.9 0 .8.1.4.7 0 .7-2.1-.7.2-3.2 0-4.5-4.6-.4-1.4 5.5-6.7 3-.1 1.4.9 1.6.7 3 .7.8 2.8.2 2.3 2.2 2.7.8 1.1-2.8 3.7-2.2 1 2.6-5.2 4-.8 5.2-1.7-1.6 1.3-1.9 2.3-3 0 1-.4 1.7-.8 2.3 1.3-.2 3.7 2.1 4.5 0-.6-.2-1.5-.1-1.5-.8-.6-.2-1.5 0-1.5-.7.6.1 1.5 0 1.5.7.6.2 1.5 0 1.5.8 2.1 2.2 5.6-1.8 6.7 1.4 1.8-2.4 4.1 0 6-1.4.6-1.4 1.2-2.8 1.4-4.5zm-30.5-.7c3.7-.2 1.7-4.1 1.5-5.3-1.3 0-1.9.6-2.2 1.5.4 0 .8.6 0 .8v1.5c.7 0 .6.9.7 1.5zm-10.4-3.8c1.3-.1 3.7.8 3-1.5-1.7-.2-2.8.2-3 1.5zm87.1-1.5c3.1.8.2-2.2 0 0zm-.7 0c-.5-1-.9.1 0 0zm-7.5-.7c-3.9-.8-.9 2.3 0 0zm-10.4.7c-.3-.3.5.5 0 0zm-9.7-.7c-.6.2-1.5 0-1.5.7.6-.1 1.5 0 1.5-.7zm-14.1 0c-1.1.5 0 .9 0 0zm-17.2 0c-4.7-.9-1.6 2.3 0 0zm61.8 0c-.3-.3.5.5 0 0zm-27.5 0h2.2c.1.9-.1 2.1.8 2.2-.1-1 .3-1.6.7-2.2-.1-1.1-6.1-1.1-3.7 0zm-9.7 0c-.3-.3.5.5 0 0zm-.7.7c1.1-2.2-3.9-1.9-3.8-.7 1.8-.3 1.7 1.4 3.8.7zm-11.2-1.4c-1.1.4.1.9 0 0zm-12.7.7c1.1-.5 0-.9 0 0zm-3.7-.7c-3.1-.8-.1 2.2 0 0zm-3.7 0c-1.1.4.1.9 0 0zm-17.1 0c-.6.1-1.5 0-1.5.7.6-.2 1.5 0 1.5-.7zm-3 0c-3.1-.8-.2 2.2 0 0zm110.9 0c-.3-.4.5.4 0 0zm-7.4 0c.8 2.9.8-3 0 0zm-2.3-.8c-1 .5.1.9 0 0zm-5.2.8c-.3-.4.5.4 0 0zm-26 0c-.3-.4.5.4 0 0zm-14.9 0c-.3-.4.5.4 0 0zm-35-.8v.8c1.8.1 1.3-1 0-.8zm-10.4 1.5c1.1-.1 2.6.1 2.2-1.5h-1.5c0 .8-.6.9-.7 1.5zm-9.7-.7c1.1-.5-.1-.9 0 0zm87.1-.8c-.3-.3.5.5 0 0zm-22.3 0c-.3-.3.5.5 0 0zm-21.6.8c.8-.2 1.3.1 1.5.7 1.9 0 .9.6.7 1.5h2.2v-1.5c-.6-.8-2.7-.2-2.2-2.2-1.5-.3-2.3.1-2.2 1.5zm-1.5-1.5c-.2.8-1.5.5-1.5 1.5.5.2 2.9 1.8 3 0-.8-.2-.5-1.5-1.5-1.5zm-3 .7c-.3-.3.5.5 0 0zm-5.9 2.2c2 .1 6.3-1.4 4.4-2.9-1.1 1.3-4.3.6-4.4 2.9zm-3.8-2.2c.9 3 .9-2.9 0 0zm-3.7.8V195c-1.3-.3-1.4.6-1.5 1.5h1.5zm-11.9 2.2c1.4.3 1.9 1.6 3.7 1.5.2-1.6 2-4.6-.7-5.2.3 2.6-1.9 2.6-3 3.7zm6.7-3c.1-3.3-2.9-.2 0 0zm84.1-2.2c.5 1.1.9-.1 0 0zm-3 2.2c1-.2 1-2.2 0-2.2v2.2zm-22.3 1.5c2.3-.9 2.2-3.4 4.5-1.5-.7.2-3.8 1.5-1.5 2.2.7-1.4 3.3-1.1 3-3.7-2.9-1.7-4.8.8-7.5-.7-.5 2.3 2.6.9 1.5 3.7zm-33.5-2.2c.9-.2.8-1.5 0-1.5v1.5zm-8.9-.8c0-.7-1.3-.9-1.5 0 .1.9.8.5 1.5 0zm-30.5 2.3c2.4.5 2.7-1.3 2.9-3-5.8.7-2.7 4.1-3.7 7.4 1.8 0 2.2-1.3 4.5-.7v-.8c-1.4-.8-2.5-1.9-3.7-2.9zm-2.3-2.3c0-.7-1.3-.9-1.5 0 .9-.1 1.2 1.1 1.5 0zm105-.7c-.8.1-1.2-1.1-1.5 0 0 .7 1.3.9 1.5 0zm-4.5 0c-.4-1.1-.9.1 0 0zm-3 0c-.4-1.1-.9.1 0 0zm-28.2.7c1.2.1 1.9-.5 2.2-1.5-1.3 0-1.9.6-2.2 1.5zm-1.5-.7c.8 2.9.8-3 0 0zm-16.4 0c-.3-.3.5.5 0 0zm-3.7 0c-1.3 0-2.3-.2-3-.8-1.2 2.1 3.2 2.1 3 .8zm-6 0c-.4-1.1-.9.1 0 0zm-5.2 0c.4-3-.6 4.4 0 0zm46.2-.8c-.4-.3.4.5 0 0zm-9-.7h-1.5c-.2 1.3.6 1.4 1.5 1.5V192zm-39.4 0c.1 2.2 3.1-.7 0 0zm-4.5 0c-1.1.5.1.9 0 0zm-17.9 2.2c.2-1.1 1.7-.5 2.3 0 .2-1.9-1.1-2.4-3-2.2.1.9-.1 2.1.7 2.2zm77.5-2.2c-.4-.3.4.5 0 0zm-3 0c-3-2.6-1.8 2.4 0 0zm-23.8 1.5c1.7 2 1.9-2 3.7 0 .1-1.6-.6-2.4-2.3-2.2.3 1.4-1 1.4-1.4 2.2zm-57.4-1.5c.9 2.9.9-2.9 0 0zm88.6-.7c.5.4-.3-.4 0 0zm-22.3-.8c-1.1.5.1.9 0 0zm-41 .8c-.1-.9-.7-.5-.7 0h.7zm-27.5 1.4c.2-1.9-1.6-1.9-3-2.2-.7 2.5 1.1 2.4 3 2.2zm71.5-1.4c.4 0 .8.1.7.7h1.5c0-1 .4-1.6.7-2.2-1.7-.2-2.8.1-2.9 1.5zm-14.2-.8c.9 2.9.9-2.9 0 0zm-2.2.8c1.1-1.9-2.5-2.2-2.2-.8 1.2-.2 1.2.7 2.2.8zm-19.4-1.5c-.5.1-1.4 0-1.5.7.6-.2 1.5 0 1.5-.7zm-5.9 0c-.1 1.2.5 1.9 1.5 2.2.2-1.5-.2-2.3-1.5-2.2zm-23.1 0c-.6.1-1.5 0-1.5.7.6-.2 1.5 0 1.5-.7zm-9.7.7c-.4-1.1-.9.1 0 0zm95.3-.7c.5.4-.3-.4 0 0zm-23.8.7c3.5.8-.8-3.5 0 0zm-6 0c.9 1.8 3.5-.8 1.5-1.5 0 1-1.3.7-1.5 1.5zm-11.1-1.5c-.4.6-.8 1.2-.8 2.3 1.1 0 2.1.1 2.3-.8-.9-.2-.5-1.5-1.5-1.5zm-1.5.8c-.9 0-1.2-1.1-1.5 0 0 .7 1.3.9 1.5 0zm-11.2 2.2c4.5-1.3 5.6.2 8.2-2.2-3.4.4-4.6-1.4-8.2-.8v.8c1.3.5.1 1.3 0 2.2zm0-2.2v-.8c-.8.2-.4.8 0 .8zm-20.8 0c-1.3 0-2.4-.2-3-.8-1.2 2.1 3.2 2.1 3 .8zm11.1 0c-1.7-1-1.6.3-2.9-1.5.7 2.9-6.2-.9-4.5 1.5 3.7.3-.3 1.6-.8 2.2h3c-.6-2.6 2.4-1.3 3-.7 0-.5.6-.9.7 0h-.7v.7c1.9.4 2.7-.3 2.2-2.2zm-20.1 0c1-.2.8-1.5 0-1.5v1.5zm0 0v-1.5c-2.4-.6-1.1 1.5 0 1.5zm66.3-.8c3.3.2.2-2.9 0 0zm-38.7-1.5c-1 2.1 1.3 4.5 2.2 2.3-.4 0-.8-.6 0-.8.4-1.6-1.1-1.4-2.2-1.5zm-13.4 0c.4 1.1.9 0 0 0zm-24.6 1.5c1.8 2.3 3.3.6 4.5-1.5-1.9.1-3.6.5-4.5 1.5zm70-2.2c-.8 2.2 1.6 1.3 3 1.5-.1-1.4-2.6-.5-3-1.5zm-11.2.7c.5.5-.3-.3 0 0zm24.6-.7c-1.4.7-2.5-2.2-3 0 2.2.6-.4 2.4 0 3.7 3-.8 1.1-1.9 3-3.7zm-37.2 0c1 3.9 2.6-2.4 0 0zm-3.8-.8c-.5.2-1.4.1-1.4.8.5-.2 1.4 0 1.4-.8zm9.7-.7c.5 1.1.9-.1 0 0zm-29.8 0v2.2h2.3c-.4-1-1.2-1.8-2.3-2.2zm64.1-.7c-.9.1-2.1-.2-2.3.7.9-.1 2.1.1 2.3-.7zm-9 0c-1.2 2.5-1.3 2.4-4.4 3.7-.2 1.6 2.6.3 3.7.7.2-2.9 3.3.2 0 0v1.5c1.1.1 3.9 3.3 3.7 0-3 0-.6-5.3-3-5.9zm-10.4 0c-.7 3 2.2.1 0 0zm-30.5 0c-1.1.4.1.9 0 0zm-14.9 0c-.6.1-1.5 0-1.5.7.6-.2 1.5 0 1.5-.7zm-12.7 0c.1 1.1 2.1 2.4 1.5 0h-1.5zm79-.8c.4 1.1.9-.1 0 0zm-4.5.8c-.5-.3-2.9-1.9-3 0 1.4-.8 2.5 2.2 3 0zm-12.7 0c.2-.7-.3-.7-.7-.8-.1.6.3.7.7.8zm-2.2 0c1.1-.1 2.4 3.1 2.2 0-.4-.1-.8-.2-.7-.8-.9-.1-1.3.2-1.5.8zm-1.5 0c.1-.7-.3-.7-.7-.8-.2.6.3.7.7.8zm-11.2-.8c-.5.2-1.4 0-1.4.8.5-.2 1.4-.1 1.4-.8zm-17.1 1.5c1.2-1.8-2.5-2.2-2.2-.7 1.2-.3 1.3.7 2.2.7zm-48.4-1.5c-.5.2-1.4 0-1.5.8.6-.2 1.5-.1 1.5-.8zm97.6 0c-.5-1.1-.9.1 0 0zm-21.6 0c-.2-2.2-3.1.7 0 0zm-3.8 0c.9 2.9.9-2.9 0 0zm-4.4.8c2 0 1.5-1.3 3 0 1.1-2.3-4.2-2.3-3 0zm-14.9-1.5c-.6 2.8 1.9 2.5 3 3.7 0-2-1.3-1.5 0-3-1.4.1-1.6-.9-3-.7zm38-.8c.4 1.1.9-.1 0 0zm-41.7.8c-.7 4.4.4-3 0 0zm-5.2.7c-1.1-.2-1.3-1.2-2.3-1.5-.6 1.6 2 3.4 2.3 1.5zm-4.5-.7c-.3-.3.5.5 0 0zm-20.1-.8c-.2 1.2.7 1.3.7 2.3h.8v-1.5c-.6-.2-.8-.8-1.5-.8zm81.1 0c-1.4.7-2.5-2.2-2.9 0 .4.2 2.8 1.9 2.9 0zm-44.6 1.5c1 1.4 4.8.1 5.9 1.5.4-.5 3-2.2.8-3-1.2 1.1-3.3 1.2-5.2 1.5-.7-.6-.5-2-1.5-2.2v2.2zm-24.6-1.5c.9 3 .9-2.9 0 0zm70-.7c-.3-.3.5.5 0 0zm-5.2 0c-.3-.3.5.5 0 0zm-2.3-.8c.5 1.1.9 0 0 0zm-7.4 3c-4.3 1.3-2.8-3.1-6-3 .3 1.6-.5 2-.7 3 .4.1.9.1.7.8 2.7.3 4.3 1.1 6-.8zm-61.1 2.2c0-1.2.6-1.9 1.5-2.2.1 1.3-.1 2.3-.7 3 1 1 5.2 1.4 5.2-.8-1.4-.1-1.6.9-3 .8 0-.8-.6-.9-.7-1.5 2.4-.9-.1-3 0-4.5-.8 2.3-1.3 1-2.3 0 .7 2.8-3.1 4.3 0 5.2zm-2.2-5.2c-.8.7-.2 2.8-2.2 2.3v1.5c2.1.5 4.4-2.5 2.2-3.8zm55.8 1.5c.2-.9 1.4-1.7 0-2.2-.1.9-1.3 1.7 0 2.2zm-5.2-1.5c.9 3 .9-2.9 0 0zm-62.5-.7c-1.1.5.1.9 0 0zm-64.8.7c-.3-.3.5.5 0 0zm149.7-.7c-.3-.3.5.5 0 0zm-9 1.5c-2.1.1-1.7-2.3-3.7-2.3-.2 2.9 1.5 4.8 3.7 2.3zm-32-2.3c-.2 1.6-3.3.2-3 2.3 1.5 1.4 1.4-.5 3.8 0 0-1.1.1-2.1-.8-2.3zm-37.9.8c.8 2.9.8-2.9 0 0zm-9.7 0c.8 2.9.8-2.9 0 0zm85.6-.8c-.3-.3.5.5 0 0zm-1.5-.7c-2.6.7-3.6 3-.7 3.7-.8-2.2 1.6-1.3 2.9-1.5-.3-1.6-4.6.1-2.2-2.2zm-8.9 0c-.6.2-1.5 0-1.5.7.6-.1 1.4 0 1.5-.7zm-5.2.7c-.4-.3.4.5 0 0zm-1.5-.7c-.6.2-1.5 0-1.5.7.6-.1 1.4 0 1.5-.7zm-5.2.7c-.4-.3.4.5 0 0zm-13.4-.7c-.1 0 0 .7 0 .7-3.6 4.1 3.5-1.3 0-.7zm-13.4.7c-.4-.3.4.5 0 0zm-17.2-.7c-.5.2-1.4 0-1.5.7.6-.1 1.5 0 1.5-.7zm-21.6.7c-.3-.3.5.5 0 0zm105.8-1.4c-.6.1-1.5 0-1.5.7.5-.2 1.4 0 1.5-.7zm-55.1 0c-.6.1-1.5 0-1.5.7.6-.2 1.4 0 1.5-.7zm-6.7.7c-.3-.3.5.5 0 0zm-28.3-.7c-.9.1-.4.7 0 .7v-.7zm83.4 0c2.5 2.2 2.2-2.8 0 0zm-57.4-.8s.1.7 0 .8c-3.5 4 3.6-1.4 0-.8zm-20.8 0c.4 1.1.9-.1 0 0zm87.1-.7c-.6.1-1.5 0-1.5.7.6-.2 1.5 0 1.5-.7zm-2.2 0c-.6.1-1.5 0-1.5.7.5-.2 1.4 0 1.5-.7zm-3 .7c-.3-.3.5.5 0 0zm-4.5-.7c-.6.1-1.5 0-1.5.7.6-.2 1.5 0 1.5-.7zm-2.2 0c-.6.1-1.5 0-1.5.7.6-.2 1.5 0 1.5-.7zm-3.7.7c-.4-.3.4.5 0 0zm-12-.7c-.8.1-2.1-.2-2.2.7.9-.1 2.1.1 2.2-.7zm-78.9 2.2c1.6.7 3.4-1.9 1.5-2.2-.2 1-1.2 1.2-1.5 2.2zm46.2-3c-.6.2-1.5 0-1.5.8.6-.2 1.5 0 1.5-.8zm-26.8 1.5c.7-3.1-2.2-.1 0 0zm-28.3-.7c0-.8-1.3-1-1.5 0 .2.9.8.4 1.5 0zm90.1 2.2c2.2-3.1 6.3 0 8.2-3.7-2.9 2.1-8.3-2-8.2 3.7zm-2.3-3c-.3-.3.5.5 0 0zm-29.7-.7c-.9.1-2.1-.1-2.3.7.9-.1 2.1.2 2.3-.7zm-27.6.7c-.3-.3.5.5 0 0zm67.8-.7c1-.5-.1-.9 0 0zm-48.4.7h1.5v-1.5h-1.5v1.5zm-6.7-1.5c-4.8-.8-1.7 2.3 0 0zm-23.8 6c.8-2.9.8 2.9 0 0zm5.9-4.5c-.3.9-.9 1.6-2.2 1.5 0-1 .1-2.1-.8-2.2-.7 4.1.1-1.9-2.2-.8.6 2.9-1.2 3.3-2.2 4.5-1.1-.9-1.9-.9-3 0-.2.8-1.5.5-1.5 1.5 1.7 1.2 4-.2 4.5.7.2 1.8-.2 2.9-.8 3.8 2.4.6 1-2.5 3-2.3-.5 2.4.1 3.1-.7 3.7-4.9-.5-8.4-2.5-14.2-2.2-1.1 3.8 2.2.6 3 .8.3 0 1.2 1.2 2.2 1.4 1.5.4 5.9-.5 6 1.5 1.8.5 5.4-.9 5.9.8.8 0 1 1.3 0 1.5-.1.8.2 1.3.8 1.5 2.9-.5.8-3.8 3.7-2.3.2-2.9-3.6-1.9-3.7-4.4h-.8c.6 2.4-1.4 1.1-1.5 0h1.5c0-1-.9-1.1-.7-2.3.7 0 .9.6 1.5.8-.1-.9.1-1.4.7-1.5.1-1.4-.9-1.6-.7-3-.4 0-.9-.6 0-.7v.7c2.3 1 4.2-2.1 2.2-3zm-14.9-1.5c-2.2.2.7 3.1 0 0zm-27.5.8c.8 2.9.8-3 0 0zm-6.7 0c-.3-.3.5.5 0 0zm117.6-1.5c-.6.2-1.5 0-1.5.7.6-.1 1.5 0 1.5-.7zm-93.1 1.5h1.5v-1.5h-1.5v1.5zm81.2-1.5c-.3-.3.5.5 0 0zm-26.1 0c-.3-.3.5.5 0 0zm-1.5 0c-1.3.7-2.4-2.2-2.9 0 .4.2 2.8 1.8 2.9 0zm-8.9-.7c-3.1-.8-.1 2.2 0 0zm-3 0c-.8.1-2.1-.2-2.2.7.9-.1 2.1.1 2.2-.7zm-15.6 1.4h1.5c1.1-1.8-2.5-2.1-2.2-.7.4 0 .8.1.7.7zm-8.2-1.4c.9 2.2 4-.9 0 0zm-3 2.2c1.5 0 1 2 3 1.5 1-3-2.7-1.8-.7-3.7-1.7-.2-2.4.6-2.3 2.2zm-4.4-.8c2 1 2-2.4 0-1.4v1.4zm-.8 0h.8v-1.4h-.8v1.4zm-11.9-.7c-.3-.3.5.5 0 0zm-3 .7c2.2 1.1 3.5-2 .8-1.4-.2.6-.8.7-.8 1.4zm-11.9-.7c-.3-.3.5.5 0 0zm70.7-.7c.5.4-.3-.4 0 0zm-35.7 0c-.1-.9-.7-.5-.7 0h.7zm-5.2-.8c-.1.6.3.7.7.8.2-.7-.2-.7-.7-.8zm-2.2.8c.1-.7-.3-.7-.8-.8v.8h.8zm-16.4 0c.1-.7-.3-.7-.8-.8-.1.6.3.7.8.8zm46.1-1.5c.2 2.2 3.1-.7 0 0zm-38.7.7c-.8.1-1.1-1.1-1.5 0 .1.8 1.3.9 1.5 0zm-15.6-.7c-1.1 7.2 3 1.9 0 0zm-24.6.7c-.3-.3.5.5 0 0zm89.4-.7c-1.8 2.5 2.5-1.8 0 0zm-7.5 0c.7.3 1.4.6 1.5 1.5h.8c.6-1.6-2-3.4-2.3-1.5zm-3 0c-.4-1.1-.9 0 0 0zm-8.9.7c.8 0 .9.6 1.5.8-.1-1.2.1-2.6-1.5-2.3v1.5zm-33.5-.7c.9 2.9.9-3 0 0zm-1.5 0c-1-1-2.2-.5-3 .7.5.1.9.1.8.8H88c.1-.6.7-.8.7-1.5zm-11.1-.8c-.6.2-1.5 0-1.5.8.5-.2 1.4-.1 1.5-.8zm-11.2.8c.5.5-.3-.3 0 0zm42.4.7c.9-1.1.8-1.8-.7-2.2-.1 1-.1 2.1.7 2.2zm121.4-3c.4 1.1.9 0 0 0zm-92.3 4.5h2.9c.6-2.8-2.3-6.1-4.4-3.7 1.9-.2 2.4 1 2.2 3h-.7v.7zm-22.4-3.7c-.3-.3.5.5 0 0zm-13.4 2.2c.5.1.9.1.8.8 2-1 2 2.4 0 1.4.5 2.8 2.4-.5 2.9 2.3-.7.5-1.1 1.3-1.4 2.2h2.2c-.2-1.7.1-2.9.7-3.7-1.6.3-1.4-1.1-1.5-2.2-.4-.1-.8-.2-.7-.8.5.1.9.1.7.8 2.1.3.7-2.8 2.3-3 .1-1.6-2.7-.4-3.7-.8.6 2.4-2 1.6-2.3 3zm-19.3-2.2c3.1.2-.9 2.7 1.5 3.7.7-2.5.2 2.1 2.2.7v-1.4c-.5-.1-.9-.2-.8-.8-.8-.4-1-5.2-2.9-2.2zm-1.5 0c-.3-.3.5.5 0 0zm148.9-.8c-.5-1-.9.1 0 0zm-72.2-.7c-.6.2-1.5 0-1.5.7.5-.1 1.4 0 1.5-.7zm-25.4 1.5h1.5v-1.5h-1.5v1.5zm-28.2-.8c-.9-2.2-4 .8 0 0zm-29.1-.7c-.6.2-1.4 0-1.5.7.6-.1 1.5 0 1.5-.7zm50.6.7c-1-.1-1.2-1.2-2.2-1.5-.6 1.6 1.9 3.4 2.2 1.5zm-28.2.8v-2.3c-.6.7-2.1.5-2.3 1.5.6.4 1.2.8 2.3.8zm99-2.3c.5.5-.3-.3 0 0zm-6 3c0-1.8-2.6-4.7-3.7-3 1.5.7 1.5 3 3.7 3zm-6.7-3.7c-1.1.5.1.9 0 0zm-3.7 0c-1.1.5.1.9 0 0zm-23.8 0H155c-.6 2.4 1.5 1.1 1.5 0zm-4.5.7c.5.5-.3-.3 0 0zm-3 0c.5.5-.3-.3 0 0zm-6.7 2.3c.4-1.1 1.1-1.9 1.5-3h-3c-.2 1.7.2 2.8 1.5 3zm-14.9-2.3c.5.5-.3-.3 0 0zm-17.8 0c.5.5-.3-.3 0 0zm-8.2 0c.5.5-.3-.3 0 0zm-13.4.8c-.5-.4-2.3-3-3-.8 1.9-.9 1.8 3.5 3 .8zm-4.5-.8c.5.5-.3-.3 0 0zm-2.2-.7c-.6.2-1.5 0-1.5.7.6-.1 1.5 0 1.5-.7zm-3.7 0c-.6.2-1.5 0-1.5.7.5-.1 1.4 0 1.5-.7zm-7.5 0c-3.9-.8-.9 2.3 0 0zm-8.9 0c-.6.2-1.5 0-1.5.7.6-.1 1.5 0 1.5-.7zm167.5 0c-.3-.3.5.5 0 0zm-37.2 0c-.1-.7-1.3-.9-1.5 0 .8-.1 1.1 1.1 1.5 0zm-7.5 0c4 .8.9-2.3 0 0zm-3.7 0c1.1-.5-.1-.9 0 0zm-23.8 0c1.1-.5-.1-.9 0 0zm-1.5 0c-.5-1.1-.9.1 0 0zm-11.2 0c1.1-.5-.1-.9 0 0zm-3 0c-.4-1.1-.9.1 0 0zm-3.7 0c-.3-.3.5.5 0 0zm-11.2-.7c-1 .4.1.9 0 0zm-4.4 3.7c2.5.7 1.1-2.3 1.5-3.7-.9.1-2.1-.2-2.3.7 1.8.2 1.7 2 .8 3zm-31.3-3c-.1-2.2-3.1.7 0 0zm-20.1 0c1.1-.5-.1-.9 0 0zm-6.7.7h1.5V166h-1.5v1.4zm-8.9-.7c-.3-.3.5.5 0 0zm93 2.2c-1.2-1.2-.3-2.3 0-3.7-.8.1-2.1-.1-2.2.8.7-.5.1 5.4 2.2 2.9zm-21.6-2.9c3.1.7.2-2.3 0 0zm-9.6-.8c-.6.2-1.5 0-1.5.8.6-.2 1.4-.1 1.5-.8zm-14.2.8c-.3-.4.5.4 0 0zm-3 5.2c2.8-.6.5-3.6 0-5.2-1.5.3-1.9-.6-2.9-.8.7 3-4.7-1-6 1.5.3 2.3 3.8-2 4.5.7-2.4-.3-2.1 1.9-3 3 2.3.6.9-2.5 3.7-1.5.2-1 1.7-.8 2.3-1.5v2.3c-1.1 0-1.7-.4-2.3-.8-.7 5.6 4 4.2 6.7 3.8v-.8c-1.2-.1-2.8.4-3-.7zM61.2 166c-.3-.4.5.4 0 0zm128.8-1.5c.4 1.1.9-.1 0 0zm-6.7.7c-.3-.3.5.5 0 0zm-2.3 0c-.3-.3.5.5 0 0zm-29.7 0c-.4-.3.4.5 0 0zm-.8-.7c-.9.1-2.1-.2-2.2.7.9-.1 2.1.1 2.2-.7zm-20.8.7c-.3-.3.5.5 0 0zm-15.7-.7c-.8.1-2.1-.2-2.2.7.9-.1 2.1.1 2.2-.7zm-39.4.7c-.7 4.4.4-3 0 0zm115.4-.7c-.5-1.1-.9 0 0 0zm-31.3 0c0-.8-1.3-1-1.5 0 .2.9.8.4 1.5 0zm-3 0c1.1-.5-.1-.9 0 0zm-8.9-.8c-.6.2-1.5 0-1.5.8.6-.2 1.5 0 1.5-.8zm-23.1.8c.9 2.9.9-3 0 0zm-17.1.7h1.5v-1.5h-1.5v1.5zm-25.3-1.5c-3.1-.7-.2 2.3 0 0zm106.4 0c-.3-.3.5.5 0 0zm-14.9 0c-.3-.3.5.5 0 0zm-19.3-.7v2.2c1 .1 2.1.1 2.2-.7-1.6.4-1-1.5-2.2-1.5zm-72.2.7c3.1.7.1-2.2 0 0zm-13.4 0c-1.8 2.5 2.5-1.8 0 0zm-11.9 0c-.3-.3.5.5 0 0zm128-.7c-.3-.3.5.5 0 0zm-17.1 0c.9 2.9.9-3 0 0zm-17.9 0c-.3-.3.5.5 0 0zm-3.7-.8c-3.1-.7-.1 2.3 0 0zm-73 .8c.9 2.9.9-3 0 0zm149.7-1.5c.4 1.1.9-.1 0 0zm-48.4.7c-.3-.3.5.5 0 0zm-28.3-.7v.7c2.7.6 2.7-1.2 0-.7zm-66.3 3c.2-1.9-1.1-2.4-2.2-3-.6 2.4 1.2 2.3 2.2 3zm143-3c-.5-1.1-.9.1 0 0zm-29.8 2.2c.5-2.7-1.5-2.9-3.7-2.9-.1 2.3 3 1.4 3.7 2.9zm-5.2-2.9c-2.2.1.7 3 0 0zm-3.7.7c-.3-.3.5.5 0 0zm-2.3 0c-.3-.3.5.5 0 0zm-35.7 0c-.5-1.1-.9.1 0 0zm-6 0c1.9.6 2.1 7.4 4.5 3-3 .2-.4-1.6-.7-3-1.1.1-2.1.1-2.3-.7-.8-.2-1.3.1-1.5.7zm-5.2 0c-.3-.3.5.5 0 0zm-1.5-.7h-.7c.1.8.7.4.7 0zm-11.9 1.4c1.1 2.3 4-1.8.8-1.4-.2.6-.8.7-.8 1.4zm-5.2 7.5c-.3-.3.5.5 0 0zm-5.9-2.3c-.3-.3.5.5 0 0zm5.2-1.4c0-.8.9-.6 1.5-.8-.1.7-.9.6-1.5.8zm-3-.8c.1-.9 1.4-.6 2.2-.7-.1.8-1.3.6-2.2.7zm-5.2-1.5h1.5v1.5h-1.5v-1.5zm1.5-2.9c.7 2.5-2.3 1.1-3.7 1.4-1.4 1.1 1.1 3.7-.8 5.2 3.7.9 9.7-.7 10.4 3-1-.9-2.7-1-2.9.8 3.2-1 1.5 2.8 4.4 2.2 1.4-1.9 2-3.9 5.2-1.5-.6-2.2-.6-2.3 0-4.5-1.9 0-3.8-.1-3.7-2.2 1.6-.3 2 .5 3 .8v-5.2c-.6 2.8-4.7 4.3-6 1.4-3.1.7-3.5-1.4-5.9-1.4zm-15.7 1.4c1 .1 1.1 1 2.3.8 0-1.3-.6-1.9-1.5-2.2 0 .7-.6.8-.8 1.4zm-8.1-1.4c.5 2.2-.8 2.7-.8 4.4h3c-.4-3.4 1.5-2.4 3-4.4h-5.2zm-12.7.7c0-.8-1.3-.9-1.5 0 .8-.1 1.2 1.1 1.5 0zm-4.5-.7c.2 2.2 3.1-.8 0 0zm-4.4 0c-3.1-.8-.2 2.2 0 0zm122.1 0c-.4-.4.4.4 0 0zm-26.8 0c-.1-.8-1.3-1-1.5 0 .1.9.8.4 1.5 0zm-3 0c-.3-.4.5.4 0 0zm-2.3 0c-.3-.4.5.4 0 0zm-2.9 0c-.3-.4.5.4 0 0zm-17.2 0c1.1-.5 0-.9 0 0zm-.7 0c-.5-1.1-.9 0 0 0zm-17.9 1.4c1.2 0 2.9.4 3-.7-1.5.2-2.3-.2-2.2-1.5-.9.1-.7 1.4-.8 2.2zm-24.5-1.4c1-.5-.1-.9 0 0zm-22.4 0c-.4-1.1-.9 0 0 0zm119.9 0c2.2-.2-.7-3.1 0 0zM76.1 160c-.9.1-1.2-1.1-1.5 0 0 .8 1.3.9 1.5 0zm-11.9.8v-1.5c-1.3-.3-1.5.5-1.5 1.5h1.5zm144.4-1.5c.8 2.9.8-3 0 0zm-82.7 0c.9 2.9.9-3 0 0zm-8.1-.8c-1.4.2-3.8-.7-3 1.5 1.7.2 2.8-.2 3-1.5zm-30.6.8c0-.8-1.3-1-1.5 0 .2.9.9.4 1.5 0zm-5.9-.8c-1.1.5.1.9 0 0zm-20.9.8c.9 2.9.9-3 0 0zm-8.9 0c-.3-.3.5.5 0 0zm145.2-1.5c-.9.1-2.1-.2-2.3.7.9-.1 2.1.1 2.3-.7zm-55.1 0c.4 2.4-2.7 1-.8 3 1.2.3 2.5-2.8.8-3zm-22.4.7c.9.1.7 1.4.8 2.3h1.5c.8-1.9-1.6-4.3-2.3-2.3zm-45.4-.7c.5 1.1.9-.1 0 0zm-2.2.7c-.3-.3.5.5 0 0zm143.7-.7c-.3-.3.5.5 0 0zm-79.7 0c0-.8-1.3-1-1.5 0 .9-.1 1.2 1.1 1.5 0zm-46.1-.8c-2.3 2.5 2.7 2.3 0 0zm-15.7.8c-.4-1.1-.9.1 0 0zm132.5-.8c-.3-.3.5.5 0 0zm-10.4 0c-.3-.3.5.5 0 0zm-13.4 0c-.3-.3.5.5 0 0zm-104.2-.7c.5 1.1.9-.1 0 0zm-8.9 3c.2-2.3-2.7-1.3-3-3-.5 2.5 1.2 2.7 3 3zm118.3-3c-.3-.3.5.5 0 0zm-26.8 0c-.3-.3.5.5 0 0zm-15.6 3c1-2.4 3.5 1.6 3.7-1.5-.9-.1-2.1.1-2.2-.8-.2-.5 0-1.4-.8-1.5.8 1.9-3.2 2.6-.7 3.8zm-86.4-.8c0-1 .4-1.6.8-2.2-1-.1-1-1-2.2-.8.1 1.4.4 2.5 1.4 3zm-12.6-2.2c0-.8-1.3-.9-1.5 0 .8-.1 1.2 1.1 1.5 0zm109.4 0c1.3 0 1.9-.6 2.3-1.5-1.3 0-2 .6-2.3 1.5zm-5.9 2.2c1.8-.2 8.5.7 6.7-.7-4.1.2-3.3-2.2-6 0-.6-2.4 1.9-1.6 2.2-3-2.7.1-2.1.8-4.4 0-.6 2.3 2 1.4 1.5 3.7zm-6-3c.9 3 .9-2.9 0 0zm-3 0c.5.5-.3-.3 0 0zm-5.9 0c-.3-.3.5.5 0 0zm-16.4 1.5c-.4-2.5-2.8-1.9-4.5-1.5-.2 2.7 2.7-.2 4.5 1.5zm-12.7 2.3c3.3-.8 4.2.8 6 1.5.6-1.2 2.4-1.2 2.2-3-4.1.4-7.3-.2-8.2-3h-.7c-1.2 1.2.3 2.9.7 4.5zm-22.3-3.8c-.1-.8-1.3-.6-2.2-.7v.7h2.2zm-2.2 0v-.7c-1.9-.1-1.3.9 0 .7zm-3 .8c.7-3.1-2.2-.2 0 0zm-6.7-.8c.9 3 .9-2.9 0 0zm74.4-.7c-.3-.3.5.5 0 0zm-26.8.7c1.3.1 2-.5 2.3-1.4-1.2-.3-1.3.7-2.3.7v.7zm-76.6-.7c-.3-.3.5.5 0 0zm137.7-.7c.5.4-.3-.4 0 0zm-40.2 0c.5.4-.3-.4 0 0zm-2.2 0c-.4-.4.4.4 0 0zm-20.1.7h1.4c.3-1.3-.5-1.4-1.4-1.5v1.5zm-12.7 0h.7c.2-.9-.1-1.3-.7-1.5v1.5zm-33.5-.7c0-.8-1.3-1-1.5 0 .2.9.8.4 1.5 0zm-17.1-.8c-1.1.4-3.9-.9-3.7.8 1.1 1.1 3 .5 3.7-.8zm110.2 0c-.9.1-1.2-1.1-1.5 0 0 .8 1.3.9 1.5 0zm-4.5-.7c-1.6-.2-2.4.6-2.2 2.2 1-.4 1.8-1.2 2.2-2.2zm-8.2.7c-1.3.1-2.3-.2-3-.7-1.2 2 3.2 2 3 .7zm-49.9 0c.7 0 .6.9.8 1.5h2.2v-1.5c-.5-.2-2.9-1.8-3 0zm-23.8-.7c-2.9.2.1 3.2 0 0zm29 1.5c.9-.2.7-1.4.8-2.3h-.8v2.3zm14.2-2.3c0-.7-1.3-.9-1.5 0 .1.9.8.5 1.5 0zm61-.7c-.3-.3.5.5 0 0zm-37.2-.8c-1.2 2.1 3.2 2.1 3 .8-1.4.1-1.6-.9-3-.8zm-26.1 0c-2.2.6-1.7 2.1-4.4.8-.8 2.5 1 2.4 3 2.2.3-1.1 1.1-1.9 1.4-3zm-23 2.3c.8.1 1.3-.2 1.5-.8-.9-.2-.6-1.5-1.5-1.5v2.3zm0 0v-2.3c-.8.3-2.6 2.9 0 2.3zm-17.2.7h2.3c.3-2.3-2.7-1.2-3-3v2.3c.6-.2.7.3.7.7zm-6.7-2.2c-.3-.3.5.5 0 0zm-5.9 0c-.3-.3.5.5 0 0zm87.1-.8v1.5c.7 0 .9.6 1.5.8-.9-2.4 2.4-.6 1.5-3-1.4-.2-1.7.8-3 .7zm-5.2.8c2.7 2.4 1-4 0 0zm-11.2-.8c.5.5-.3-.3 0 0zm-24.6-.7c-1.2.4.1 3.5-1.4 3.7-1.5 0-1-2-3-1.5-.1.9.1 2.1-.8 2.3v-2.3h-2.2v1.5c.6.2.9.6.7 1.5 4.4-.8 2.3 1.3 4.5 1.5 1.1-.2.3-2.2 1.5-2.2 1.7-.5 1.1 1.4 2.2 1.4-.4-2.3-.2-4.2-1.5-5.9zm-12.6 2.2c0-1.2 2.1-.4 2.2-1.5-1.3.1-2.3-.1-3-.7.2.9-.1 2.1.8 2.2zm-18.6-.7h1.5c1.1-1.8-2.6-2.2-2.3-.8.5.1.9.1.8.8zm-28.3.7c0-1 1.3-.7 1.5-1.5-1 0-1.1-.9-2.3-.7.2.9-.1 2.1.8 2.2zm-20.9-1.5c.9 3 .9-2.9 0 0zm150.4-1.4c.5 1 .9-.1 0 0zm-56.6.7c-.3-.3.5.5 0 0zm-17.1 0c-.3-.3.5.5 0 0zm-15.6 11.2c.9.3 1.5.9 1.5 2.2-1.2.2-1.3-.7-2.3-.8.2-.6.8-.7.8-1.4zm2.2-11.9c-2.5 1.1-4.5 2.9-6.7 4.4 2.9.5 3.1.6 5.2-.7-1.4 2.9 4.7 2.1 1.5 4.4.3-1.2-.6-1.4-1.5-1.5-1 3.1 1.6 2.4 1.5 4.5h-3c-.4-1.6 2.2-2.4-.7-2.2-.7 1.6-.3 5.9-3.7 6.7 3.1.9 9.2-.7 11.9-.8-.5-1.7-.7-5.6 1.5-6.7.1 1.9.1 3.6-.8 4.5 2.7-1.2.5 2.5 2.3 2.2-.4-4.2-.4-4.7 0-8.9-.8.2-.5 1.5-1.5 1.5.6-1.5-2-3.4-2.3-1.5.8 1.2-1 6.3-2.9 7.4.1-4.3 2.2-6.8 0-9.6-2.6.6-.8-2 0-2.3-.2-.6-.8-.7-.8-1.4zm-9.7 2.9c-1.4-1.2-.9.1-2.9 0 .8 2.4-1.2 1.8-1.5 3 .9.1 2.1-.1 2.2.7h-2.2v3c3 .2 3.3-.2 1.5-1.5 1.6-1.7 2.9.3 5.2 0-.3-3.6-2.1-4.6-.8-8.1h-.7c-.6.6-.8 1.6-.8 2.9zm-22.3-2.2c-.3-.3.5.5 0 0zm122.8-.7c.5.4-.3-.4 0 0zm-6.7 0c.5.4-.3-.4 0 0zm-29-.8c-.6.2-1.5 0-1.5.8.6-.2 1.5-.1 1.5-.8zm-14.1.8c.5.4-.3-.4 0 0zm-13.4 0c.5.4-.3-.4 0 0zm-3.8 0c.5.4-.3-.4 0 0zm-5.2-.8c-.8.1-2.1-.1-2.2.8.9-.2 2.1.1 2.2-.8zm-23.8 1.5c-.5-.4-2.2-3-3-.7 1.9-1 1.8 3.4 3 .7zm-8.2-1.5c-.6.2-1.4 0-1.5.8.6-.2 1.5-.1 1.5-.8zm-3.7 0c.5 1.1.9-.1 0 0zm-4.5.8c.5.4-.3-.4 0 0zm-17.8 0c0-.8-1.3-1-1.5 0 .8-.1 1.1 1 1.5 0zm-6 0c.5.4-.3-.4 0 0zm-20.1 0c.5.4-.3-.4 0 0zm151.1-1.5c.2.8.8.4.8 0h-.8zm-13.4 0c-1 .4.1.9 0 0zm-2.2.7c-.3-.3.5.5 0 0zm-61-.7c-3.3.1-2.2 4.6.7 4.4.8-2.9-2.6-2.6-.7-4.4zm-6.7.7c-.4-.3.4.5 0 0zm69.9-.7c1.1-.5 0-.9 0 0zm-15.6-.8c-.6.2-1.5 0-1.5.8.6-.2 1.5-.1 1.5-.8zm-14.1.8c-.4-.3.4.4 0 0zm-35.8 0c0-.8-1.3-1-1.5 0 .9-.1 1.2 1 1.5 0zm-26 1.5c1.2.2 1.2-.8 2.2-.8.1-3.3-2.2-.3-2.2.8zm8.9-3c.2 1.3-.8 3.7 1.5 3 .2-1.7-.2-2.8-1.5-3zm-5.2.7c-.3-.3.5.5 0 0zm-25.3-.7c-.7 3.1 2.2.1 0 0zm132.5-.8c-.6.2-1.5.1-1.5.8.6-.2 1.5 0 1.5-.8zm-8.9 0c-1.1.5 0 .9 0 0zM91 148.9c-.4-1.5 1-4.5-1.5-3.8.4 1.4.3 3.1 1.5 3.8zm-3.8-3c.9 2.9.9-3 0 0zm-32.7 0c-.5-1.1-.9.1 0 0zm-4.5 0c.9 2.9.9-3 0 0zm129.5 3c-.3-.4.5.4 0 0zm2.3-4.5c-.9 3.1-4.9 3-5.2 6.7h4.4c0-1.3.6-1.9 1.5-2.2.1-.9-.1-1.4-.7-1.5 0 .4-.6.8-.8 0h.8c-.7-1.4 2.2-2.5 0-3zm-3.7.7c1-.4-.1-.9 0 0zm-3 0c.8 3 .8-2.9 0 0zm-103.5 0c-1.4.2-1.6-.8-3-.7-1.2 2.1 3.2 2 3 .7zm125.1-.7c-.3-.3.5.5 0 0zm-41 0c.9 2.9.9-3 0 0zm-6.7 0c-.3-.3.5.5 0 0zm-1.5-.8c-.5.2-1.4.1-1.5.8.6-.2 1.5 0 1.5-.8zm-6.7.8c0-.8-1.3-.9-1.5 0 .2.9.9.4 1.5 0zm37.3-1.5c-.6.2-1.5 0-1.5.7.5-.1 1.4 0 1.5-.7zm-3.8 0h-.7c.1.8.7.4.7 0zm-36.4.7c-.4-.3.4.5 0 0zm-16.4-.7c-.9.1-2.1-.1-2.3.7.9-.1 2.2.2 2.3-.7zm-4.5.7c-.1-.8-1.3-.6-2.2-.7.1.9 1.3.6 2.2.7zm-4.5-.7c-.6.1-.7.7-1.4.7-.4 2.1 2.7.7 2.9 2.3 2-.7-.6-2.8-1.5-3zm-4.4 3.7c2.4.2 2.5-4.9.7-3h-.7v3zm-2.3-3c0-.7-1.3-.9-1.4 0 .1.9.8.5 1.4 0zm-4.4-.7c-.6.2-1.5 0-1.5.7.6-.1 1.5 0 1.5-.7zm-3 3c.8-1.9-1.6-4.3-2.2-2.3 1.7-.3-.4 3.4 2.2 2.3zm-8.2-3c.5 1.1.9-.1 0 0zm-17.9 0c.5 1.1.9-.1 0 0zm121.4 0c-.3-.3.5.5 0 0zm-8.9-.7c-.6.1-1.5 0-1.5.7.5-.2 1.4 0 1.5-.7zm-10.5.7c3.1.7.2-2.2 0 0zm-.7 0c-.5-1.1-.9.1 0 0zm-30.5 0c.8 2.9.8-2.9 0 0zm-2.3 0c-.3-.3.5.5 0 0zm-57.3 0c-.1-2.2-3.1.7 0 0zm-8.9 0c-.3-.3.5.5 0 0zm94.5-1.5c.2 2.2 3.1-.7 0 0zm-50.6.8c-2.2.1-3.4-1.8-3.7.7.9.1 2.1-.1 2.2.7.7-.3 1.3-.6 1.5-1.4zm-7.4 0c-.4-.4.4.4 0 0zm-16.4 5.9c-.7-2.5-.4-4.8 0-6.7h-3c1.2 2-.2 6.7 3 6.7zm-22.4-5.2c.8-3.1-2.2-.2 0 0zm106.5 0h2.2c0-1.2.1-2.6-1.5-2.2.1 1-.3 1.6-.7 2.2zm-9.7-1.5c-.4-1.1-.9.1 0 0zm-38.7-.7c.5 1 .9-.1 0 0zm58.1-.8c.4 1.1.9-.1 0 0zm-4.5.8c.6-.2.7.3.8.7h1.4c.4-1.6-1-1.4-2.2-1.5v.8zm-7.4-.8c-.8 4.3 3.2.3 0 0zm-2.3.8c0-.8-1.3-1-1.5 0 .9-.1 1.2 1 1.5 0zm-43.9 0c-.4-1.1-.9 0 0 0zm-5.2 0c.9 2.9.9-3 0 0zm-14.1 1.5c.4.4-.4-.4 0 0zm2.9-1.5c-3.6.2-6.3-2.1-5.9 2.9h.7c1.8-1.9 1.7 3.2-.7 3v-3c-2.4 2.1-.9 5-.8 8.2h.8v-3.7c1.2-.1 2.8.4 3-.7-.8-.1-.6-.9-.8-1.5h3.7c-.2-1.6-3.3-.2-2.9-2.3.7 0 .8-.6 1.4-.7.9.2 3.5 2.3 1.5 3 .4 2.3 4 1.8.8 3.7 1.8 1.6 3.4-1.6 3.7-3.7-1.1 0-2.1.1-2.2-.8.1-.6.7-.7.7-1.5-.9-.1-2.1.2-2.2-.7-.9-.1-.7-1.4-.8-2.2zm-17.8 1.5c2.9.6 4.1.3 5.9-1.5-2.9-.7-4.1-.4-5.9 1.5zm-6 .7c.9-4.8-2.3-1.6 0 0zm14.9-3c-.3-.3.5.5 0 0zm-3 .8c2.3-.2-.7-3.1 0 0zm-20.8-1.5c-1.1.1-2.8-.3-3 .7 1.1-.1 2.7.3 3-.7zm133.2 0c-.3-.3.5.5 0 0zm-19.3 0c2.1-2.2-2.2 2.1 0 0zm-4.5 0c-.3-.3.5.5 0 0zm-2.2.7c-.4-4.6-3.1 2.8 0 0zm-64.8-.7c0-.8-1.3-1-1.5 0 .2.9.8.4 1.5 0zm-40.9-.8c.2 3 3.2-.1 0 0zm101.2 1.5c-.2-1.2.7-1.3.8-2.2h-2.3c0 1.3.6 1.9 1.5 2.2zm-8.2-1.5c.9 3 .9-2.9 0 0zm-43.9-.7c-.6.2-1.5 0-1.5.7.6-.1 1.5 0 1.5-.7zm-38 1.5h2.3c.1-1.4-.8-1.8-2.3-1.5v1.5zm91.6-2.3c-.6-.1-.7.3-.7.8.6.1.7-.3.7-.8zm-6 0c-3.4-.8.9 3.5 0 0zm-43.1 1.5c-.2 1.9 1.6 1.8 2.2 3 1.6-1.5-.4-2.1 0-4.5h-.7c.2 1.3-.6 1.5-1.5 1.5zm-6.7-1.5c-.6.2-1.5.1-1.5.8.6-.2 1.4 0 1.5-.8zm-28.3.8c.8 2.9.8-2.9 0 0zm-1.5-.8c-.6.2-1.5.1-1.5.8.6-.2 1.5 0 1.5-.8zm-18.6.8c.6.1.7.7 1.5.7.1-.6.7-.7.7-1.5-1 0-2.1-.1-2.2.8zm110.2-.8c-.4-.3.4.5 0 0zm-52.9 0c-.1-.8-.7-.4-.7 0h.7zm-55.1 6.7c1.2 1.3 3.5.4 4.5-.7-1.2-.4-.1-.8.7-.7.3-2.4-1.7-3.6 0-5.3-1.2.3-1.3-.7-2.2-.7.1 1.1.1 2.1-.8 2.2.2-.8-.1-1.3-.7-1.5-.1 3-.1 3.1 2.2 2.3.1 1 .2 2.1-.7 2.2-1.8-1.8-1.7.8-3 1.5v.7zm.8-7.4c-.7-.1-.7.3-.8.7.6.2.7-.2.8-.7zm101.2.7c.7 0 .6-.9.7-1.4h-.7v1.4zm-71.5 0c-2.4 1-.5-2.4-2.9-1.4-1.4 2.4 2.6 3.1 2.9 1.4zm-11.1-.7c.5 1.5 2 2 3.7 2.2.3-.6.6-1.3 1.5-1.5-1-1.5-2.2-.8-5.2-.7zm0 0c-.5-1.1-.9.1 0 0zm-6.7-.7c.1 2.2 3.1-.7 0 0zm-11.9.7c3 .7.1-2.2 0 0zm111.6-.7c.9 2.9.9-3 0 0zm-13.4 2.2h2.3c0-.5.1-.9.7-.8v-1.4c-2.1-2.3-6.6.7-3 2.2zm-25.3-2.2c.5.4-.3-.3 0 0zm-57.3-.8c-3.8 1.8 2.6 1.9 0 0zm-3.7.8c-.5-1.1-.9 0 0 0zm-23.1 0c.5.4-.3-.3 0 0zm128.8-.8c.5.5-.3-.3 0 0zm-8.2 0c0-.7-1.3-.9-1.5 0 .8-.1 1.2 1.1 1.5 0zm-4.5 0c.5.5-.3-.3 0 0zm-3 .8c3.3.1.3-3 0 0zm-5.9-1.5c.3 1.5-.5 1.9-.8 2.9.7.6 1.7.8 3 .8-3.6-1.5.9-4.5 3-2.2.6-2.9-3.5-1-5.2-1.5zm-6 .7c0-.7-1.3-.9-1.5 0 .9-.1 1.2 1.1 1.5 0zm-31.2 0c-.9.1-1.2-1.1-1.5 0 0 .8 1.3 1 1.5 0zm-5.2 0c-.5-1.1-.9.1 0 0zm-115.4 0c-.3-.3.5.5 0 0zm181.6-.7c.9 2.9.9-3 0 0zm-25.3-.8c.5 1.1.9 0 0 0zm-61.8 3c-.1-1.9-1.1-2.9-3-3 .1 1.9 1.1 2.9 3 3zm-11.2-3c-.5.2-1.4.1-1.4.8.5-.2 1.4 0 1.4-.8zm-17.1.8c-.8 0-1.1-1.1-1.5 0 0 .7 1.3.9 1.5 0zm50.6-1.5c.3 1.5-.1 2.3-1.4 2.2.2 1.8-3.4-.4-2.3 2.2h2.3c0-.4.6-.8.7 0 3.6 1.3 1.3-3.3.7-4.4zm-27.5.7c.5.5-.3-.3 0 0zm79.7-.7c-.4-.3.4.5 0 0zm-14.2 1.5c0-.7.9-.6 1.5-.8 0-2.9-3.8-.2-1.5.8zm-41.7-2.3c-.8 4.4 3.2.4 0 0zm-22.3.8c-.3-.3.5.5 0 0zm-15.6 0c-3.6-2.1-1.8 2.4 0 0zm-13.4 0c.8 2.9.8-3 0 0zm123.5-.8c.5.5-.3-.3 0 0zm-2.2 0c-.3-.3.5.5 0 0zm-19.4-.7c.2 2.2 3.1-.7 0 0zm-9.6 0c-.9.1-2.1-.1-2.3.7.9-.1 2.1.2 2.3-.7zm-38.7.7c.8 3 .8-2.9 0 0zm-5.3 0c.5-2.9-.6 4.4 0 0zm6.7-.7c-.3-.3.5.5 0 0zM91 131c-.2-.8-.8-.4-.8 0h.8zm-2.3 0c-3-2.6-1.7 2.4 0 0zm110.9-.7c.9 2.9.9-3 0 0zm-18.6 2.2c1-1 .5-2.3-.7-3 .1 1.1-.3 2.8.7 3zm-2.2-2.2c.5.4-.3-.4 0 0zm-67.7 5.2c2.4-1 .5 2.4 2.9 1.4-.3 1.7-4.3 1-2.9-1.4zm2.9-2.3c1.9.1 2.9 1.1 3 3-1.9-.1-2.9-1.1-3-3zm-2.2 0c-.3-.3.5.5 0 0zm1.5-.7c.5.5-.3-.3 0 0zm-8.9-.8c.9 1.9 3.9-1.7 4.4 0-.4 1.6.9 4.9-.7 5.2.8 3.4 7.3.8 9.7.8-.7-2.1 1-1.9.7-3.7-3.3-1.7-5.3-4.7-10.4-4.5-.3 1.7-4.1-.1-3.7 2.2zm-14.9 6.7c3.9-1.7 3.5-3.4 3.7-8.1-.4-1.4-5.8-.8-3 .7 0-.4.6-.8.8 0h-.8c2.8 2.6-1.5 4.2-.7 7.4zm113.1-5.9c-.9-1.9 2.2-3.1 0-3.7-.4.4-1.7 3.5 0 3.7zM99.9 134c.9-.4 3.1-2.5 2.2-3.7-.4 1.7-2.2-.9-.7-1.5-1.8.4-5.4-1-6 .7 3.5 1.2 4.9-.2 4.5 4.5zm-15.6-5.2c-.2 3.2 2.9.2 0 0zm130.2-.8c.5 1.1.9-.1 0 0zm-28.3 1.5c.8 0 .9.6 1.5.8 0-.8.6-.9.8-1.5-.8 0-.9-.6-1.5-.8 0 .8-.6.9-.8 1.5zm-72.2-.7c-.3-.3.5.5 0 0zm-29.7 0c-.5-1.1-.9 0 0 0zm130.2-.8c-.4-1.1-.9.1 0 0zm-18.6-.7c-.6.1-1.4 0-1.5.7.6-.1 1.5 0 1.5-.7zm-81.9 1.5c-.3-.3.5.5 0 0zm-.7.7c2-.7 3.3 3 5.2 1.5-1.9.4 1.8-3.4-.7-3.7-.5 3.6-3.3-2.5-5.3.7.6.2.9.6.8 1.5zm-20.9-2.2c-.5.1-1.4 0-1.4.7.5-.1 1.4 0 1.4-.7zm116.2 0c-.3-.3.5.5 0 0zm-19.4 2.2c1.3.1 2.3-.2 3-.7 0-1.3-.6-1.9-1.5-2.3.9 2.4-1.2 1.8-1.5 3zm-4.4-3c-.5-.4-.8 5.2 1.4 4.5-2.3-1.1 1.6-5.1-1.4-4.5zm-3 .8c.8 2.9.8-3 0 0zm-7.5 0c-.3-.3.5.5 0 0zm-24.5 0c-2.4-2.4-1.3 2.6 0 0zm-41 .7c1 1 2.8 1 3-.7-1-1-2.8-1-3 .7zm-.7-1.5c-2.7-.4-3.9.7-4.5 2.3 1.8 0 2.2 1.2 4.5.7-2.6-1.2-2.1-1.4 0-3zm-6 0c-1.1.5.1.9 0 0zm-5.9 0c-.6.2-1.5.1-1.5.8.6-.2 1.4 0 1.5-.8zm-22.4.8c-.3-.3.5.5 0 0zm76 0c2.2-.2-.7-3.1 0 0zm-58.1-1.5c-.6.2-1.5 0-1.5.7.6-.1 1.5 0 1.5-.7zm129.5 0c-.3-.3.5.5 0 0zm-29-.8c-1.1.5.1.9 0 0zm-5.2.8c-.3-.3.5.5 0 0zm-17.1-.8c-.7 3.1 2.2.2 0 0zm-61.8 0c-1.1.5.1.9 0 0zm87.8 0c-.3-.3.5.5 0 0zm-20.8 0c1.1-.4-.1-.9 0 0zm0 0c-.6-.1-.8-.7-1.5-.7-.4 1.5 1.4 1.8 1.5.7zm-2.3-.7c-1 .5.1.9 0 0zm-23.8 0c-3.5-.8.8 3.5 0 0zm-46.9 2.2c4.3-.1-.6-4.3 0 0zM88 125c-.3-.3.5.5 0 0zm-33.5 0c.8 3 .8-2.9 0 0zm-6 0c-.3-.3.5.5 0 0zm151.1-1.4c.5 1 .9-.1 0 0zm-29.7 1.4c.1-3.2-3-.2 0 0zm-20.9-.7c1.1-.5-.1-.9 0 0zm-33.5.7c1 1 2.3.5 3-.7-1.1-.9-1.9-.9-3 0v.7zm-3 0c-1.7-3.6-4.8.9 0 0zm-11.1-1.4c-3.3-.2-.2 2.9 0 0zm118.3 0c.9 2.9.9-3 0 0zm-20.1 0c-.4-1.1-.9 0 0 0zm-8.1-.8c-1.1.5 0 .9 0 0zm-12.7 2.2c1.9.2 2.3-1.1 3-2.2-1.9-.1-2.4 1.2-3 2.2zm-26.8 1.5c1.7.5 3.5-4.4.7-3.7.3 1.7-.1 2.9-.7 3.7zm-38-1.5c.1-.7.9-.5 1.5-.7.8-3.6-4.2.2-1.5.7zm-19.3-2.2c-.8 4.3 3.2.3 0 0zm-4.5 0s.1.7 0 .8c-3.5 4 3.6-1.4 0-.8zm-47.6.8c-.3-.4.5.4 0 0zm161.5-.8c-.3-.3.5.5 0 0zm-31.3 1.5h.8c.5-2.7-1.3-2.7-.8 0zm-52.8-2.2c-1.1.4.1.9 0 0zm-11.2 2.9v-2.9c-1.2-.2-1.3.7-2.2.7v1.5c.9-.1 1.3.2 1.5.7h.7zm-62.5-2.2c-.3-.3.5.5 0 0zm178.7-.7c-.4-.3.4.5 0 0zm-27.6 0c-.3-.3.5.5 0 0zm-1.5 0c.5-3-.6 4.4 0 0zm-1.5 2.9c-.2-1.2.7-1.2.8-2.2-1.5-.5-3.2-2.5-3.7 0 .6.7 2 .5 2.2 1.5-.9-.1-1.3.2-1.5.7h2.2zm-7.4-2.9c0-.8-1.3-1-1.5 0 .8-.1 1.2 1.1 1.5 0zm-8.2 0c-.3-.3.5.5 0 0zm-1.5 0c-.3-.3.5.5 0 0zm-6.7 0c-.3-.3.5.5 0 0zm-12.6 0c-.4-.3.4.5 0 0zm-38 0c1.1-.5-.1-.9 0 0zm-6-.8c-3.1-.7-.1 2.3 0 0zm77.5-.7c-1.1.4 0 .9 0 0zm-5.3 3.7c2.8-.8 2.2 1.9 4.5 1.5-1.5-1.4-.8-4.9-2.2-4.5 1.2 2.9-2 1.6-2.3 3zm-91.5-3.7v1.5c1.2.2 1.4-.6 1.5-1.5h-1.5zm-4.5.7c.9 3 .9-2.9 0 0zm-46.9 0c-.3-.3.5.5 0 0zm150.4-.7c.9 2.9.9-3 0 0zm-44.7 0c.9 2.9.9-3 0 0zm-52.8 0c3.1.7.1-2.2 0 0zm-3.8 0c-.3-.3.5.5 0 0zm99.1 0c2.2-.2-.8-3.1 0 0zm-14.2-.8c-.3-.3.5.5 0 0zm-19.3 0c-.4-.3.4.5 0 0zm-44 1.5c1-.1 1-2.2 0-2.2-1.4 1.5-1.4.7 0 2.2zm-5.2-2.2h-.7c.1.8.7.4.7 0zm-6.7.7c-3.8-2-2.8 2.6 0 0zm-11.9 0c-.3-.3.5.5 0 0zm-1.5-.7c-.7 3.1 2.3.1 0 0zm-5.9 0c-1.1.5 0 .9 0 0zm-15.7 0c.5 1.1.9-.1 0 0zm-42.4.7c-.3-.3.5.5 0 0zm165.3-.7c0-.8-1.3-.9-1.5 0 .8-.1 1.1 1.1 1.5 0zm-70 0c-.3-.3.5.5 0 0zm-6 0c-.4-1.1-.9.1 0 0zm-35 0c.9 2.9.9-2.9 0 0zm-11.9 0c-.4-1.1-.9.1 0 0zm41 0c-1.9-4-4.6 2.4 0 0zm-7.5-1.5c-.5.2-1.4 0-1.5.8.6-.2 1.5-.1 1.5-.8zm-14.9 0c-.7 2.2 1.7 1.3 3 1.5-.1-1.4-2.5-.5-3-1.5zm-43.9.8c0-.8-1.3-1-1.5 0 .9-.1 1.2 1 1.5 0zm144.4-.8c-1.8 2.5 2.5-1.8 0 0zm-12.6-.7c-.6.1-1.5 0-1.5.7.6-.2 1.5 0 1.5-.7zm-24.6 1.5c.8 0 .9.6 1.5.7-.1-1.2.1-2.6-1.5-2.2v1.5zm-46.9-1.5c-1.1.4.1.9 0 0zm-8.2 1.5c1 0 1.1.9 2.3.7 0-1.3-.6-1.9-1.5-2.2 0 .7-.6.9-.8 1.5zm-1.5-.8c.9 2.9.9-2.9 0 0zm-8.9 1.5c.3-1.5-.1-2.3-1.5-2.2-.2 1.2.7 1.2.8 2.2h.7zm137.7-2.2c.9 2.9.9-3 0 0zm-5.9 0c.5.5-.3-.3 0 0zm-69.3 0c.5.5-.3-.3 0 0zm-34.9-.8c-2.8-.5-4.2 1.9-6 0-1.5 2.8-1.4 3-.7 6-2 .8-3.2-2.3-3 .7v.8c1.4-1.4 1.8-.1 3.7 0 .7-1 .7-2.8 2.2-3 2.8-.5 2.7 2 4.5.7-.8-.6-.5-1.6 0-2.9-2.4-.5-1 2.6-3 .7 0 .4-.6.8-.7 0-4.6 2.4-1.9-4 0 0h.7c-.6-2.4 2-1.5 2.3-3zm-68.5.8c.5.5-.3-.3 0 0zm174.9-.8c.5.5-.3-.3 0 0zm-31.3-.7c-.8.1-2.1-.1-2.2.7.9-.1 2.1.1 2.2-.7zm-64.7.7c2.8-1.3-4.8 2.2 0 0zm-19.4.8c2.3-.2-.7-3.1 0 0zm-21.6-1.5c.5.5-.3-.3 0 0zm-16.3 0c.4.5-.4-.3 0 0zm50.6 2.2c1.3-.4 4.4.9 4.4-.7-3.2.9-2.3-2.1-3.7-3-.9 1.7.1 1.4-.7 3.7zm-31.3-3c.5.5-.3-.3 0 0zm-59.5 0c.4.5-.4-.3 0 0zm199.5-1.5c-.6.2-1.5.1-1.5.8.6-.2 1.4 0 1.5-.8zm-11.2 1.5c1 .1 1 1 2.2.8-.1-.9.2-2.1-.7-2.3 0 1-1.3.7-1.5 1.5zm-45.4-.7c-.3-.3.5.5 0 0zm-46.9 0c.9 2.9.9-2.9 0 0zm-8.2-.8c-3.1-.7-.2 2.3 0 0zm-4.5.8c.9 2.9.9-2.9 0 0zm-8.2-.8c-.5.2-1.4.1-1.4.8.5-.2 1.4 0 1.4-.8zm-21.5.8c-.4-.3.4.5 0 0zm-1.5-.8c-1.1.5 0 .9 0 0zm-5.2 0c-.6.2-1.5.1-1.5.8.5-.2 1.4 0 1.5-.8zm48.3-.7c-.8.1-2.1-.1-2.2.7.9-.1 2.1.2 2.2-.7zm-6.7 0c-.6-.1-.7.3-.7.7.6.2.7-.2.7-.7zm-8.9 0c-3.7.2-.5 3.4 0 0zm-9.7.7c-.3-.3.5.5 0 0zm-17.8-.7v.7c.8-.1.4-.7 0-.7zm-4.5.7c.5.5-.3-.3 0 0zm41.7-1.4c-.6-.2-.7.2-.8.7.7.1.7-.3.8-.7zm-6 .7c0-.7-1.3-.9-1.5 0 .2.9.9.5 1.5 0zm-5.9 0c-.3-.3.5.5 0 0zm-16.4-.7c-2.2.1.7 3 0 0zm-8.9.7c-.5-1.1-.9.1 0 0zm152.6-.7c.8 2.9.8-3 0 0zm-96.8-.8c-.8 4 2.3.9 0 0zm-28.3 1.5c2.6-1.2-2.4-2.3 0 0zm-23.1-.7c-.9-.1-1-1-2.2-.8-1.2 1.8 2.5 2.2 2.2.8zm14.9-.8c-.3-.3.5.5 0 0zm62.6-.7c-.4-.3.4.5 0 0zm-43.2-.8c0 .8.9.6 1.5.8-.1-.8-.9-.6-1.5-.8zm-3 0c-3.1-.7-.2 2.3 0 0zm-14.1.8c-1.8 2.5 2.5-1.8 0 0zm-5.3.7c1.3.1 2-.6 2.3-1.5-1.3 0-1.9.6-2.3 1.5zm-63.2-.7c-.3-.3.4.5 0 0zm125.8-.8c.8 3 .8-2.9 0 0zm-23.1 0c-.3-1.6-3.7-.3-5.2-.7-1.2 3.1 3.8.1 3.7 2.2-1.5 1.6-2.1-.4-4.5 0 .7 1.6 1.9 2.6 4.5 2.2.7-.6.5-2 1.5-2.2v-1.5zm-11.2.8c.3-1.3-.5-1.4-1.5-1.5.4.6.7 1.3 1.5 1.5zm-8.9-.8c1.1-.4-.1-.9 0 0zm-17.9-.7c-.3-.3.5.5 0 0zm-15.6 1.5c.2-1.1 1.2-1.3 1.5-2.3-1.5-.6-3.4 2-1.5 2.3zm-52.9-1.5c-.3-.3.5.5 0 0zm140.7 0c1 0 1.1.9 2.3.7-.1-.8.1-2.1-.8-2.2 0 1-1.3.7-1.5 1.5zm-35.7-1.5c.5 1.1.9-.1 0 0zm-23.1 1.5c1 0 1.1.9 2.3.7-.1-1 .3-1.6.7-2.2-1.4.1-2.5.5-3 1.5zm-15.6-.8c-.3-.3.5.5 0 0zm-3-.7h-4.4c-.2 2.2 2.7 2.5.7 4.5 2.1-1.8 2.4-3.6 3.7-4.5zm-5.9.7c-.3-.3.5.5 0 0zm-52.1 0c-.4-.3.4.5 0 0zm-.8-.7c-.6.2-1.5 0-1.5.7.6-.1 1.5 0 1.5-.7zm100.5 0v-.7c-1.8-.1-1.3.9 0 .7zm-16.4.7c.3 1.8-.1 2.9-.7 3.8h2.2c.2-.6.8-.8.8-1.5-.6-.2-1.5 0-1.5-.8.6.2 1.4 0 1.5.8 2.7-.8 2.1 1.8 4.4 1.5.4-1.5 1.6-1.9 1.5-3.8-1.3-1-2.9-2.4-3 .8 1 .1 1.8.2 1.5 1.5-.8-.2-1.1-.9-1.5-1.5-1.2 0-1.9-.6-2.2-1.5-1.9-1.9-.6 1.2-3 .7zm0-.7c1.1-.5 0-.9 0 0zm-2.9 0c1.3-.1 1.5.9 2.9.7v-.7c-.4-.2-2.8-1.9-2.9 0zm-8.2-.7c-1.1.4 0 .9 0 0zm-5.2.7c-.4-.3.4.5 0 0zm-18.7 0c-.3-.3.5.5 0 0zm-1.4-.7c-.6.1-1.5 0-1.5.7.5-.2 1.4 0 1.5-.7zm-52.2 0c-4.7-.9-1.6 2.2 0 0zm-22.9 20c-4.7-.9-1.6 2.2 0 0zm164.4-20c-.3-.4.5.4 0 0zm-43.2-.8c.1 2.4-.7 5.7 2.2 5.2-.2-2.2-.4-4.5-2.2-5.2zm-38 .8c-.3-.4.5.4 0 0zm44.7 0c1.3.2 1.4-.6 1.5-1.5-.7.3-1.3.6-1.5 1.5zm-11.9-1.5c-.3 1-.7-.1-1.5 0v2.2c.7-.2 3.8-1.5 1.5-2.2zm-15.6 1.5c3.2.1.2-3 0 0zm58.8-1.5c-.3-.3.5.5 0 0zm-29.8 0c1.1-.5-.1-.9 0 0zm-37.2 0c-.3-.3.5.5 0 0zm-3 0c-.3-.3.5.5 0 0zm27.5-.8c-.3-.3.5.5 0 0zm29.1-1.5c-.6.2-1.5.1-1.5.8.6-.2 1.5 0 1.5-.8zm-13.4 8.2c2.3-1.8-1.9-5.5 2.2-5.2.4-2.3-1.9-2.1-3-3 2.1 2.4-2.3 7.2.8 8.2zm-11.2-7.4c.9 2.9.9-3 0 0zm7.5-1.5c.1 2.2 3-.7 0 0zm27.5-.8c-.6.2-1.5.1-1.5.8.6-.2 1.5 0 1.5-.8zm-24.6 0c.5 1.1.9 0 0 0zm-2.9.8c-.5-1.1-.9.1 0 0zm-12.7 0c0-.8-1.3-.9-1.5 0 .2.9.8.4 1.5 0zm96.8-.8c-.3-.3.5.5 0 0zm-85.6-.7c-4.8-.9-1.7 2.3 0 0zM99.9 102c1.2-.1 2.6.1 2.2-1.5h-1.5c0 .7-.6.9-.7 1.5zm34.2-1.5c-.4-.4-3.5-1.7-3.7 0 2.1-.6 1.9 1 3.7.7v-.7zm-31.2-.7c-.7 1.5 1.9 3.3 2.2 1.4-.8-.4-.8-1.7-2.2-1.4zm11.1.7c1-.2.8-1.5 0-1.5v1.5zM220.5 99c-.3-.3.5.5 0 0zm-43.2-.7c.5 1.1.9-.1 0 0zM24 99c-.4-.3.4.5 0 0zm153.3-.7c.1-.7-.3-.7-.7-.8-.2.7.3.7.7.8zm-6.7-.8c-.6.2-1.5 0-1.5.8.6-.2 1.5 0 1.5-.8zm-53.6 0c.2 2.3 3.1-.7 0 0zm-14.1 9c0 .9-1.1.4 0 0 .2-3 3.2.1 0 0zm8.2-6c.5-.5 1.8-3.6-.8-3 0 3.7-1.8 1.7-3 3.7-.2 2.4 2.2-1.8 2.3.8.9 3.9-2.8.5-3.8.7-2.2.6-3.2 3.4-5.2 2.3v2.9c6.5-1.1 8.5-2.2 14.2-3.7-1.8-.5-2.6-1.9-3.7-3 1.1 0 2.8.4 2.9-.7h-2.9zm-3-2.2c.5.5-.3-.3 0 0zm-90.8 0c-.9 0-1.2-1.1-1.5 0 0 .7 1.3.9 1.5 0zm159.3-.8c-.5-1.1-.9.1 0 0zM114 99c.8-3.9-2.2-.9 0 0zm-17.1-1.5c-.3-.3.5.5 0 0zm-3.7 0c-.3-.3.5.5 0 0zm128-.7c.5.5-.3-.3 0 0zm-5.2.7c1.4-.1 2.5-.5 3-1.5-1.7-.2-2.8.2-3 1.5zM178.8 96c-.7 3.1 2.2.2 0 0zM117 97.5c-.3-3.2-4.3.8 0 0zm-11.2-.7c-.4 2.1-1.1-1.2-2.2-.8-1.1 3.4 2.2 2.3 1.5 5.2 2.4 1.1 1.9-4.4.7-4.4zM99.9 99h3c.2-1.7-.2-2.8-1.5-3 0 1.5-2.1 1-1.5 3zm-22.3-2.2c.4.5-.4-.3 0 0zm101.2-.8c-.1-2.2-3.1.7 0 0zm-70-.7c-1.1.5.1.9 0 0zm94.6 0c-.3-.3.5.5 0 0zm-30.6 0c-.3-.3.5.5 0 0zm-65.5.7c.4-1.5-1-1.4-2.2-1.5.5.7 1.4 1.2 2.2 1.5zm-14.9-.7c-.3-.3.5.5 0 0zm-8.9 0c-.3-.3.5.5 0 0zm-44.7 0c-.3-.3.5.5 0 0zm159.4-.8c.4.5-.4-.3 0 0zm12.6-.7c.4-3-.6 4.4 0 0zm-7.4 0c-.3-.3.5.5 0 0zm-91.6-.7c-2.4-.5-2.3 1.4-3.7 0-.2 1.2.7 1.2.7 2.2 1.4-.3 3.2-.3 3-2.2zm-28.3.7c-.3-.3.5.5 0 0zm-17.9-.7c-.5.1-1.4 0-1.4.7.5-.2 1.4 0 1.4-.7zm47.7 0c.5.4-.3-.3 0 0zm-9.7-.8c-.2 1.5.2 2.3 1.5 2.2v-2.2h-1.5zm-17.1 3c1.6.5 3.1-2.7 1.5-3-.4 1.1-1.1 1.9-1.5 3zm18.6-3c1.1-.4-.1-.9 0 0zm-29.8 0c-1.8 2.5 2.5-1.8 0 0zm-14.9 0c-.3-.3.5.5 0 0zm41-.7c-.3-.3.5.5 0 0zm-15.7 0c-1.8 2.5 2.5-1.8 0 0zm-3.7 0c-.3-.3.5.5 0 0zm140.7-1.5c-.3-.3.5.5 0 0zm-124.3-.8c-2.3 2.5 2.8 2.3 0 0zm-3 .8c.9 2.9.9-3 0 0zm121.4-.8c-.3-.3.5.5 0 0zm-45.4 0c-.4-.3.4.5 0 0zm-16.4 0c-.3-.3.5.5 0 0zm-52.1 0c-.3-.3.5.5 0 0zm-9.7 2.3c.6-1.5-.7-4.6-1.5-2.3 1.5.3-1.1 2.1 1.5 2.3zm-8.9-2.3c.8 3 .8-2.9 0 0zm-2.3 0c-.3-.3.5.5 0 0zm106.5-1.4c0 .7-.9.5-1.5.7-.1 2.3 4.3-.3 1.5-.7zm-1.5.7c-.5-1.1-.9.1 0 0zm-17.9 0c-.3-.3.5.5 0 0zm-78.9-.7c-.3-.4.5.4 0 0zm-9.7 2.2c.2-1.7-.1-2.8-1.5-3-.2 1.7.2 2.8 1.5 3zm-4.4-3.7c-.6.1-1.5 0-1.5.7.6-.2 1.4 0 1.5-.7zm32.7 0c.9 2.9.9-3 0 0zm-2.2 0c-.3-.3.5.5 0 0zm-42.4-1.5c-.6.1-1.5 0-1.5.7.5-.1 1.4 0 1.5-.7zm-36.5 0c-.3-.3.5.5 0 0zm79.6-1.5c.5 1.1.9-.1 0 0zm-29 0c.5 1.1.9-.1 0 0zm29 0c-.8-2.3-3.9.8 0 0zm-21.6 0c1.1-.5 0-.9 0 0zm-1.4-.7c.4 1-.9 3.8.7 3.7.6-.7.8-1.7.7-3-.6-.1-.7-.8-1.4-.7zm-6 .7v-.7c-.8.1-.4.7 0 .7zm-7.4 0c-.4-.3.4.5 0 0zm-2.3-.7c-.9.1-2.1-.2-2.2.7.9-.1 2.1.1 2.2-.7zm-40.2 0c-.6.1-1.4 0-1.5.7.6-.2 1.5 0 1.5-.7zm68.5-.8h-.7c-.1 1.8.9 1.3.7 0zm-15.6.8c.8 2.9.8-3 0 0zm-3 0c3.1.7.1-2.3 0 0zm17.9-.8c-.5-1.1-.9.1 0 0zm-12.7 0c-.3-.3.5.5 0 0zm-23.1 0c-.3-.3.5.5 0 0zm-17.1 0c.9 2.9.9-2.9 0 0zm-12.6-.7c-.1-.8-1.4-1-1.5 0 .8-.1 1.1 1 1.5 0zm75.1.7c.1-.4.2-.9.8-.7-.1-.9-.2-1.8-1.5-1.5.1.8-.1 2.1.7 2.2zm-27.5-1.5c-.3-.3.5.5 0 0zm23.1.8c-1.5-.3-1.5-2.1-3-2.3.3 1.3-.6 1.4-1.5 1.5v1.5c1.2-2.2 3.8 1.2 4.5-.7zm-4.5-.8c.7-3.1-2.2-.1 0 0zm-2.2-.7c0-.8-1.3-1-1.5 0 .8-.1 1.1 1.1 1.5 0zm-9-.8c-.5.2-1.4.1-1.4.8.5-.2 1.4 0 1.4-.8zm-5.2.8c-.3-.3.5.5 0 0zm-38.7 0c-.3-.3.5.5 0 0zm59.6-.8c-.3-.3.5.5 0 0zm-23.1-.7h-.7c.1.8.7.4.7 0zm-7.4 0c-3.1-.7-.2 2.2 0 0zm157-.8c-1 .5.1.9 0 0zm-154.1 0c-1.1.1-2.8-.3-2.9.8 1.8.1 2.3 1.4 2.9-.8zm-34.2.8c-.3-.3.5.5 0 0zm46.1-.8c.5.5-.3-.3 0 0zm-43.9 0c-.3-.3.5.5 0 0zm186.1 0c2.3-.1-.7-3 0 0zm-113.1-.7c-.3-.3.5.5 0 0zm-19.4 0c.9 2.9.9-2.9 0 0zm-1.5 0c.9 2.9.9-2.9 0 0zm-67 0c0-.8-1.3-.9-1.5 0 .2.9.9.5 1.5 0zm75.2-.7c-.1-2.3-3.1.7 0 0zm-17.8 0c.4.4-.4-.4 0 0zm-3 2.2c.1-2.4-3-1.5-3.7-3-.1 1.3.9 1.6.7 3 1.1-.9 1.9-.9 3 0zm-6.7-3c-.1 2 1.2 1.5 0 3h3c-1.3-.7-1.5-2.5-3-3zm-32 .8c.5.4-.3-.4 0 0zm-5.2 0c-.9 0-1.2-1.1-1.5 0 0 .7 1.3.9 1.5 0zm68.4 0c-2 .5-1.5-1.5-2.9-1.5.1.8-.2 1.3-.8 1.5-.9 2.5 3.2.5 3.7 0zm-6.7-1.5c-.5.1-1.4 0-1.4.7.5-.2 1.4 0 1.4-.7zm-3.7 0c.5.5-.3-.3 0 0zm17.9-.8c-.3-.3.5.5 0 0zm-27.6 0c.9 3 .9-2.9 0 0zm-1.4 3c-2.8-.6 1.9-4.6-1.5-3.7-1.3 1.5-.3 5.8 1.5 3.7zm-6-3c.9 3 .9-2.9 0 0zm-1.5-.7c-.6.1-1.5 0-1.5.7.6-.1 1.5 0 1.5-.7zm-43.2.7c-.3-.3.5.5 0 0zm-2.9-.7c-.4-.3.4.5 0 0zm174.9-.8c-.3-.3.5.5 0 0zM88 71.5c-.9 5.6 2.3 2.4 0 0zm-23.1.7c-.3-.3.5.5 0 0zm26.8-.7c-.3-.3.5.5 0 0zm-2.2 0c-.3-.3.5.5 0 0zm-1.5 0c-.5-1.1-.9.1 0 0zm-55.1 0c-.3-.3.5.5 0 0zm63.3-.8c-.3-.3.5.5 0 0zm-1.5 0c-.3-.3.5.5 0 0zM76.8 70c-.6.2-1.5 0-1.5.7.6-.1 1.5 0 1.5-.7zm1.5 0c-.3-.3.5.5 0 0zm-52.1 0c-.9.1-1.2-1.1-1.5 0 0 .8 1.3.9 1.5 0zm72.2-.7c.9 2.9.9-3 0 0zm10.4 2.9c1-.9 1.3-4.4-.7-4.4 1.4 1.8-1.2 3 .7 4.4zm-18.6-3.7c-.3-.3.5.5 0 0zm-1.5 0c-2.1.6-1.9-1-3.7-.7-1.1 2.2 3.9 1.9 3.7.7zM206.3 67c-.5.2-1.4 0-1.4.8.5-.2 1.4 0 1.4-.8zm-79.6.8c-.3-.3.5.5 0 0zm-43.2 0c.9 2.9.9-3 0 0zm-8.9 0c0-.8-1.3-1-1.5 0 .1.9.8.4 1.5 0zm-39.5 1.5c.2-1.1-.4-2.9-.7-1.5-.2 1 .4 2.9.7 1.5zm-7.4-1.5c0-.8-1.3-1-1.5 0 .8-.1 1.1 1.1 1.5 0zm72.2-1.5c-.6.2-1.5 0-1.5.7.6-.1 1.5 0 1.5-.7zm100.5 0c-.3-.3.5.5 0 0zM96.9 68.5c-.1-1.4-.5-2.5-1.5-3 .2 1.4-.7 3.8 1.5 3zm-9.7-2.2c-.3-.3.5.5 0 0zM82 68.5c.1-2.1-2.1-1.8-3-3-.5 2.5 1.3 2.8 3 3zm-8.9-2.2c-.3-.3.5.5 0 0zm-37.2-.8h-1.5c.2 1 1.5.8 1.5 0zm-29.8.8c-.3-.3.5.5 0 0zm102 0h1.5v-1.5h-1.5v1.5zm-60.3-1.5c-.6.2-1.5 0-1.5.7.6-.1 1.5 0 1.5-.7zm-11.9.7c1-.4-.1-.9 0 0zm-5.2 3.8h2.2c.3-1.4-1-4.5 1.5-3.8-2.3-2.8-5.4 2.6-3.7 3.8zm8.9-2.3c-1.5-.2-.2-3.3-2.2-2.9-.9 2.1.7 5.5 2.2 2.9zm3.7-2.9c.9 2.9.9-3 0 0zm-2.2 1.4c0-.4.1-.8.7-.7-.1-.9-.2-1.8-1.5-1.5.1.9-.1 2.1.8 2.2zm43.2-2.2c.8 2.9.8-2.9 0 0zm-2.3 0c-1.8 2.5 2.5-1.8 0 0zm-44.6.8c.7-3.1-2.3-.2 0 0zm-3 0h1.5v-1.5h-1.5v1.5zm-7.5-1.5c-1.1.4.1.9 0 0zm76 .7h1.5v-1.5h-1.5v1.5zm-23.1-.7c.9 2.9.9-3 0 0zm-52.9 0c1.1-.5 0-.9 0 0zm170.5-.8c-.3-.3.5.5 0 0zm-87.1-.7c-.6.1-1.5 0-1.5.7.6-.1 1.5 0 1.5-.7zm-72.2 1.5h1.5v-1.5h-1.5v1.5zm-11.9-1.5c-3.3-.2-.2 2.9 0 0zm81.9 1.5c-1.8.3.4-3.4-2.3-2.3-1 2.2 1.4 4.5 2.3 2.3zm90.8-2.3c.5.5-.3-.3 0 0zm-94.5 0c-.4-.3.4.5 0 0zm-16.4 0c-.3-.3.5.5 0 0zm-8.2 0c.9 3 .9-2.9 0 0zm-6.7 0c-.3-.3.5.5 0 0zm-43.2 0c-.3-.3.5.5 0 0zm-3.7.8c2.9-.2-.2-3.3 0 0zm75.2-1.5c.5.5-.3-.3 0 0zm-2.3-.8c-.5.2-1.4.1-1.4.8.5-.2 1.4 0 1.4-.8zm13.4 0c0-.7-1.3-.9-1.4 0 .8 0 1.1 1.1 1.4 0zm19.4-.7c-.3-.3.5.5 0 0zm-29 .7c2.8.8 6.2-1.2 2.9-2.2.4 2.1-2.7.7-2.9 2.2zm-5.2-1.4c-.4-.4.4.4 0 0zm-23.9 1.4c.1-1.2-.5-1.9-1.5-2.2 0 1.3.6 1.9 1.5 2.2zm-37.9-1.4c.8 2.9.8-3 0 0zm75.9-.8c-.3-.3.5.5 0 0zm-39.5 0c-.4-1.1-.9.1 0 0zm58.9-.7c.8 2.9.8-3 0 0zm-4.5 1.5c.2-1.3-1.4-4.4-2.2-2.3 1.7-.3-.5 3.4 2.2 2.3zm-3-2.3c0-.7-1.3-.9-1.5 0 .2.9.8.5 1.5 0zm-14.1 3c1.2.1 1.5-4.9-.8-3.7-.5 1.5-1.4 3.8.8 3.7zm-75.2-3c.8 3 .8-2.9 0 0zm122.8 0h1.5v-1.5h-1.5v1.5zm-81.1-.7c-.3-.3.5.5 0 0zm-33.5 0c.8 2.9.8-3 0 0zm-3-.8c-.6.2-1.5.1-1.5.8.6-.2 1.5 0 1.5-.8zm90.1 0c.8 3 .8-2.9 0 0zm-23.1 2.3c.2-.5 1.8-2.9 0-3-.2.5-1.9 2.9 0 3zm-2.2-2.3c-.4-.3.4.5 0 0zm-23.1 0c-.9-.1-1.7-1.3-2.3 0 .9.1 1.7 1.4 2.3 0zm32.7-.7c-.3 3.1 3.6.4 3.8-.7h-3c.1.6-.3.7-.8.7zm.8-.7c-.7-.2-.7.2-.8.7.5 0 .9-.1.8-.7zm-4.5.7c-.8.1-1.1-1.1-1.5 0 0 .7 1.3.9 1.5 0zm-26 0c-.4-.3.4.5 0 0zm71.4-.7c-.3-.4.5.4 0 0zm-55.1-.8c-.5.2-1.4 0-1.5.8.6-.2 1.5-.1 1.5-.8zm-58.8 2.2c.7-.1.4-4.1-.7-1.4-.2.4.3 1.5.7 1.4zm-3-2.2c-.5.2-1.4 0-1.4.8.5-.2 1.4-.1 1.4-.8zm-2.9 2.2c0-1.2-.6-1.9-1.5-2.2-.1 1.3.5 1.9 1.5 2.2zm85.6-2.9c-.6.1-1.5 0-1.5.7.6-.2 1.5 0 1.5-.7zm-13.4.7c0-.7-1.3-.9-1.5 0 .1.9.8.5 1.5 0zm-3.7 0c-.4-.3.4.5 0 0zm-21.6 0c-.3-.3.5.5 0 0zm108.7-.7c-.4-.3.4.5 0 0zm-31.3 0c-.3-.3.5.5 0 0zm-46.2.7c-1.7-.2-2.8.2-2.9 1.5 2 .1 1.5-1.2 2.9 0 .1-.5.1-.9.8-.7 0-1.1.1-2.2-.8-2.3v1.5zm-17.1-.7c-.3-.3.5.5 0 0zm-1.5 0c-.3-.3.5.5 0 0zm8.2-.8c-.3-.3.5.5 0 0zm-1.5-.7c-3.1-.7-.1 2.2 0 0zm-17.8.7c.8 3 .8-2.9 0 0zm-41.7 0c.8 3 .8-2.9 0 0zm126.5-1.5c-.6.2-1.4.1-1.5.8.6-.2 1.5 0 1.5-.8zm-50.6.8c0-.8-1.3-1-1.5 0 .2.9.8.4 1.5 0zm-4.5.7c.2-3.3-2.9-.2 0 0zm-73.7 0h1.5v-1.5h-1.5v1.5zm-21.6-.7c-.3-.3.5.5 0 0zm167.5-.8c-.7 2.3 1.7 1.4 3 1.5v-2.2h-1.5c0 .7-.9.6-1.5.7zm-.7-.7c-1.1.4.1.9 0 0zm-75.9 3c0-1.5 2-1 1.5-3-1.9-.8-3.3 2.5-1.5 3zm-8.2-3c-3.1-.7-.2 2.2 0 0zm89.3 0c-.3-.3.5.5 0 0zm-59.5 0c-.4-.3.4.5 0 0zm-3.8 0c-.8.1-1.1-1.1-1.5 0 .1.7 1.3.9 1.5 0zm-13.4-.8c.5 1.1.9 0 0 0zm-20.8.8c-.3-.3.5.5 0 0zm-46.9 0c-.3-.3.5.5 0 0zm-6.7-.8c-.6.2-1.5.1-1.5.8.6-.2 1.5 0 1.5-.8zm148.1 0c-1.6.5-2.3-2.1-2.2.8h2.2v-.8zm-2.9 2.3c-1.6-.2-.7-2.8-2.3-3-2.1 1.2 1.2 5.1 2.3 3zm-9-1.5c1.1 1.4 3.2-1.3 3.7 1.5-3.2.4-4.8-.7-5.9-2.3 1.6 2.7-5.1.8-2.2 2.3 4.4.5 7.6 1 10.4 1.5-1.1-1.7-1.6-4-3.7-4.5-.1 1.2-2.1.4-2.3 1.5zm-47.6-1.5c-.7 3.1 2.2.2 0 0zm-6 1.5h1.5v-1.5h-1.5v1.5zm-1.5-.8c-.8.1-1.1-1-1.5 0 .1.8 1.3 1 1.5 0zm-19.3.8c.7 0 .6.9.7 1.5 1.9-.1.2-2.5 0-3-.7 0-.6.9-.7 1.5zm-2.3-1.5c-.5.2-1.4 0-1.4.7.5-.1 1.4 0 1.4-.7zm-33.5 0c-.5.2-1.4 0-1.4.7.5-.1 1.4 0 1.4-.7zm134 0c-.3-.3.5.5 0 0zm-71.4 0c.1-.6-.3-.7-.8-.7-.1.6.3.7.8.7zm-23.1-.7c-1.2 0-2.8-.4-3 .7 1.2-.1 2.9.4 3-.7zm22.3 0c-.1-2.3-3.1.7 0 0zm-22.3 0c1.1-.5-.1-.9 0 0zm-32.8-.8c-.8 4 2.3.9 0 0zm114.7 0c-1.8 2.5 2.5-1.8 0 0zm-7.5 0c.2 1.4 2.6.5 3 1.5-.1-2.8-1.1-1.9-3-1.5zm-11.1-.7v2.2c2.6-.7 3.8 1.9 4.4-.7-2.1.2-2.2-1.7-4.4-1.5zm-52.1 0c-.7 3.1 2.2.1 0 0zm-4.5 0c-.1 1.8 1.1 2.3 2.2 2.9.2-1.8-1.1-2.3-2.2-2.9zm-39.5.7c-.4-1.1-.9.1 0 0zm107.2 0c.2-3.3-2.9-.2 0 0zm-6.7.8c.9-.2.7-1.4.8-2.3-.9.1-.6 1.4-.8 2.3zm-9.6 0c1.6.1 2.3-.7 2.2-2.3-2-.5-1.4 1.6-2.2 2.3zm-1.5-1.5c-.3-.3.5.5 0 0zm-41.7.7c.7.8 3.8.7 3.7-1.5-1.3.4-3.1.4-3.7 1.5zm-3.7-.7c-.5-1.1-.9 0 0 0zm-17.2 0c-.3-.3.5.5 0 0zm-14.8 0c-.4-.3.4.5 0 0zm96-.8c-.3-.3.5.5 0 0zm-6.7-.7v.7c1.8.1 1.3-.9 0-.7zm-6 0c-2.2 2.4.9 5.5 0 0zm-92.3.7c.9 3 .9-2.9 0 0zm103.5-.7c.5.5-.3-.3 0 0zm-5.2 0c-.5-1.1-.9.1 0 0zm-3.7 0c-.3-.3.5.5 0 0zm-2.3 0c1.1-.5 0-.9 0 0zm-49.8 0c-.4-.3.4.5 0 0zm-15.7-.8c-1.1.5.1.9 0 0zm-4.4.8c-.4-.3.4.5 0 0zm-11.2 0c.5.5-.3-.3 0 0zm-3 2.2c-.1-1.4-.5-2.5-1.5-3 .2 1.4-.7 3.8 1.5 3zm-49.9-2.2c.5.5-.3-.3 0 0zm128.8 0h1.5V41h-1.5v1.5zm-49.9-.8c-.3-.3.5.5 0 0zm-10.4 0c1.1-.4-.1-.9 0 0zm-5.9 0c-.3-.3.5.5 0 0zm-48.4 0c-.3-.3.5.5 0 0zm113.1-.7c.5.5-.3-.3 0 0zm-33.5 0c-1.8 2.5 2.5-1.8 0 0zm-9.6 0c.4.5-.4-.3 0 0zm-27.6 0c.5.5-.3-.3 0 0zm88.6-.7c.9 2.9.9-3 0 0zm-63.3-1.5c-.8 4.3 3.2.3 0 0zm-3.7 0c-.6.1-1.5 0-1.5.7.6-.2 1.5 0 1.5-.7zm-8.2.7c-.3-.3.5.5 0 0zm52.1-1.5c-.3-.3.5.5 0 0zm-53.6 0c-.3-.3.5.5 0 0zm58.1-.7c.5.5-.3-.3 0 0zm-55.1 0c.5.5-.3-.3 0 0zm48.4-.8c0-.7-1.3-.9-1.5 0 .8 0 1.2 1.1 1.5 0zm-35 0c.9 3 .9-2.9 0 0zm-3.7 0c.8 3 .8-2.9 0 0zm-3-.7c.5 1.1.9-.1 0 0zm-33.5.7c-.3-.3.5.5 0 0zm-50.6 2.3c1.1-1 4.8-1.9 1.5-3 .3 1.5-4.1 1.7-1.5 3zm95.3-3c-.3-.3.5.5 0 0zm-11.2 0c-.5-1.1-.9.1 0 0zm-32 0c-.3-.3.5.5 0 0zm38-1.5c-.4-.3.4.5 0 0zm-19.4 0c-.3-.3.5.5 0 0zm14.9-.7c-.3-.4.5.4 0 0zm-29 0c.8 2.9.8-3 0 0zm-2.3-.8c.9 3 .9-2.9 0 0zm67.8-2.2c-.3-.3.5.5 0 0zm-48.4 0c-.3-.3.5.5 0 0zm0-3c-.3-.3.5.5 0 0zm55.8-3c-.3-.3.5.5 0 0zm-2.2 0c-.3-.3.5.5 0 0zm-39.5 0c-.3-.3.5.5 0 0zm33.5-3.7c-.3-.3.5.5 0 0zm-5.2 0c.9 3 .9-2.9 0 0zm-117.6-.7c1.5.6 3.3-2 1.5-2.3-.2 1.1-1.3 1.3-1.5 2.3zm79.6-4.5c-.5.2-1.4 0-1.4.7.5-.1 1.4 0 1.4-.7zm29.8-2.2c-.3-.3.5.5 0 0zm20.1-1.5c-.3-.3.5.5 0 0zm-.7-1.5c-.3-.3.5.5 0 0zm-37.2 0c-.4-.3.4.5 0 0zm-3.8 0c-.3-.3.5.5 0 0zm-10.4 0c-.3-.3.5.5 0 0zm-8.2 0c-.3-.3.5.5 0 0zm-11.9 0c-.3-.3.5.5 0 0zM119.2 9c-.3-.3.5.5 0 0zm-17.8 0c-.3-.3.5.5 0 0zm-21.6.8c1.5.6 3.3-2 1.5-2.3-.2 1.1-1.2 1.3-1.5 2.3zm26-2.3c3.7-.2-5.9.4 0 0zM96.2 6c.7-3.1-2.3-.1 0 0zm4.4-1.5c.9 3 .9-2.9 0 0zM98.4 6h-2.2c-.2.9.1 1.4.7 1.5.1-.8 1.4-.6 2.2-.7 0-1.2.4-2.9-.7-3V6zm0-2.2c-1.2-.1-.6-1.9-2.2-1.5.1-1 1.2-1.2 1.5-2.2 1 .9 1.6 2.8.7 3.7z"/><path d="M150.5 133.6l-4.7-19.7h-1.1l-9 35.6h18.8l-4-15.9zM123 196.8c-.6 2.4-1.6 4-2.8 4.9-1.3.9-3 1.3-5.1 1.3H88.9c-1.8 0-3-.3-3.5-.9-.6-.7-.5-2.3.3-4.8l35.2-113.7c.7-2.1 1.6-3.8 2.7-4.9 1.1-1.1 3.3-1.7 6.6-1.7H160c3.3 0 5.5.6 6.5 1.7s1.9 2.8 2.6 5.1l37.4 113.9c1.1 3.5.3 5.3-2.5 5.3h-29c-2.5 0-4.3-.6-5.3-1.8-1-1.2-1.8-3.1-2.5-5.6l-5.1-18.5h-33.8l-5.3 19.7z"/><path d="M75.8 75.8c-18 18-29.1 42.7-29.1 70.2s11.1 52.2 29.1 70.2 42.7 29.1 70.2 29.1 52.2-11.1 70.2-29.1 29.1-42.7 29.1-70.2-11.1-52.2-29.1-70.2-42.7-29.1-70.2-29.1-52.2 11.1-70.2 29.1zM34 146C34 84.1 84.1 34 146 34s112 50.1 112 112-50.1 112-112 112S34 207.9 34 146zm310.5 23.3c.7 1.5 1.3-.2 0 0zm0-16.1c-.7.7.5-.5 0 0zm4.3 21.4c1.1-4.4-3.2-.2 0 0zm0 0c.7 1.6 1.3-.1 0 0zm4.3 1.1c-1.5.6.1 1.3 0 0zm0 0h1.1c.1-2.7-1.3-1.8-1.1 0zm1.1 0c.7 1.5 1.3-.1 0 0zm5.4-21.5c.4-.4-.7.7 0 0zm2.1 20.4v-2.1c-1.3.2-1.1 2.1 0 2.1zm0 0c.7 1.6 1.3-.1 0 0zm3.2-20.4c4.3.6-6.3-.9 0 0zm2.2-1c.4-.5-.7.7 0 0zm2.1 26.8c.5-.5-.7.7 0 0zm1.1-25.8c.5-.4-.7.7 0 0zm8.6 11.8c-4.5-1-.2 3.2 0 0zm2.1 1.1c.7 1.6 1.3-.1 0 0zm3.3 8.6c.4-.5-.7.7 0 0zm2.1-6.4c.5-.5-.7.7 0 0zm6.5-2.2c-.3-3.2-4.5 1 0 0zm-1.1-3.2c.6 1.5 1.3-.1 0 0zm1.1 3.2c.6 1.6 1.3-.1 0 0zm3.2-12.9c.4-.4-.7.7 0 0zm2.1 12.9c-6.3-.9 4.3.6 0 0zm2.2 0c-.7.7.4-.4 0 0zm2.1-1.1c-.7.7.5-.4 0 0zm3.2 3.3c-4.2 1.2 4.3 1.2 0 0zm1.1-23.7c-.2-.8 0-2.1-1.1-2.1.3.8.1 2.1 1.1 2.1zM410 166c-4.2 1.3 4.3 1.3 0 0zm3.3 2.2c-.1-1.2 1.5-1.7 0-2.2-1.1 0-1.4 1.9 0 2.2zm4.3-1.1c-4.3 1.3 4.2 1.3 0 0zm-5.4-12.9c.8 2.9 8.3 1.6 5.4-1 .5 2.7-5-2.6-5.4 1zm8.6 17.2c-.3-.8 0-2.1-1.1-2.1.2.8 0 2.1 1.1 2.1zm-1.1-4.3c.5-.4-.7.7 0 0zm2.2-2.1c.4-.5-.7.7 0 0zm3.2 1c-.7.7.4-.4 0 0zm2.1 17.2c-4.2 1.2 4.3 1.2 0 0zm2.2-45.1c-.7.7.4-.4 0 0zm22.5 26.9c-.2-3.3-4.4 1 0 0zm0-10.8c-4.2 1.3 4.3 1.3 0 0zm2.2 9.7c.6 0 1.2.1 1.1 1.1 1-.1.8-1.4 1-2.2-1.2-.2-1.9.2-2.1 1.1zm-2.2 2.1c1.9-.6 4.5 3.2 5.4 0-1.2.2-1.9-.2-2.1-1-.7-.1-1.3-.2-1.1-1.1-.9.2-1.1 1.1-2.2 1.1v1zm8.6-27.9c1.9.1 2.8-.8 3.2-2.1-1.8-.1-2.7.8-3.2 2.1zm3.2 16.1c.5-.4-.7.7 0 0zm5.4-1c.5-.5-.7.7 0 0zm4.3 12.8c.5-.4-.7.7 0 0zm4.3-2.1c-.2-.8 0-2.1-1.1-2.2.3.9.1 2.2 1.1 2.2zm-3.2-4.3c2.3 3.3 6.9-1.2 0 0zm4.3 5.4c-.7.7.4-.5 0 0zm3.2 20.3c.1-2.9-1.8-2.1 0-4.2-3.2-1.7-3.2 5.9 0 4.2zm-1.1-7.5c-.7.7.5-.4 0 0zm-1-1c2.9 1.7 2.9-4.7 1-4.3-1.8 2.2.8 2.1-1 4.3zm1-10.8c.5-.4-.7.7 0 0zm1.1-3.2c-.2-1.3.2-3-1.1-3.2.2 1.3-.2 3 1.1 3.2zm-119.2 7.5c-.7.7.4-.4 0 0zm1.1-6.4c-1 2.9-3.4-1.5-6.5 0 .5-2.4 5.7-.9 6.5 0zm3.2 3.2H366c.1 1.3-1.6.7 0 0 0-.6.9-1.2 1.1 0 4.4-1 .2 3.2 0 0zm1.1-6.4c3.2 1.3-.2 4.7-3.3 3.2.2-2 3.6-.8 3.3-3.2zm2.1 2.1c-.7.7.5-.4 0 0zm3.2-1.1c-.7.7.5-.4 0 0zm48.4 0c.4-.4-.7.7 0 0zm63.3-3.2c-1-2.1-2.1-4.3-3.2-6.4-2.4 1.5 1.4 2.6-1.1 3.2-22.6 1.4-47.8 2.7-74.1 3.2-1.6.1-3.3 2.1-5.3 2.2-1.9 0-4-2.1-6.5-2.2-9.2-.2-24.7.3-30.1 3.2.4-1.3-3.1-3.7-3.2-1 1.3-.1.7 1.5 0 0-5.8-2.5-20.7-8.6-26.8 0 5.4-1.2 8.5-2 12.9-2.2-2.4 5.1 5.7 2.6 8.6 4.3-1.1 1.1-2.2 2.2-3.3 3.2 0-.1.1-2.1 0-2.1-6-.9-10.7-.5-19.3 0 1.4 3.4 2.2.5 5.4 2.1-.1-1.3 1.5-.6 0 0 .3 2.9-6.1-1-4.3 3.3 3.4.6 5.4-.4 6.4-2.2 1.4.4 1.7 1.9 3.2 2.2 2.9-2.8-2.8-1.6 0-4.3 3-.5 1 4 3.3 4.3-.4-2.2.2-3.4 2.1-3.3.1 1.7-.5 4.1 1.1 4.3 2.5-2.9 9.2-1.6 10.7 2.2 4.9 0 12.6-4.3 8.6-6.5 2.3-.4 2.9.8 4.3 1.1.9-.9.6-2.9 2.1-3.2.3 1.2 2.2.7 2.2 2.1.9.2 1.1 1.1 2.1 1.1-.6-2.8.5-3.9 3.3-3.2.6 1.5-1.3 5.5 1 5.4.6-2.3 1.7-2.3 3.3-1.1.6-2.4-2.1-1.5-2.2-3.2 1.3-.9 2.9-1.5 5.4-1.1 3.8-.5 11.8 2.5 16.1-2.2 3.5 2.5 9 3.7 12.9 3.3-1.1-.1-.9-1.4-1.1-2.2-1.3.1-.7-1.5 0 0 5 2.2 14-1.1 17.2 1.1 2.5-4.1 6.5-1.1 6.4-4.3 5.7.3 7.2 3.5 11.9 0-.4 1.7 1 1.8 1 3.2h4.3v-2.1c-.6 0-1.2-.9 0-1.1v1.1c4.5 1.6 8.3-1.6 10.8 3.2-1-3.5 1.6-3.4 3.2-4.3 4.1-2.5 6.6-1.6 10.7-1.1zm2.2 2.2c-.2-3.2-4.5 1 0 0zm-3.2-9.7c1.8.1 2.7-.8 3.2-2.1-1.9-.1-2.8.8-3.2 2.1zm2.1-7.5c-.7.7.5-.5 0 0zm0 12.9v2.1h2.1v-2.1h-2.1zm1.1-15c.4-.5-.7.7 0 0zm0 19.3c.2 3.2 4.4-1.1 0 0zm2.1-11.8c.5-.5-.7.7 0 0zm0-5.4c.5-.5-.7.7 0 0zm2.2 30c-4.3 1.3 4.2 1.3 0 0zm0-24.6c.4-.5-.7.7 0 0zm1-1.1c-.2-.8 0-2.1-1-2.2.2.9 0 2.2 1 2.2zm0 5.4c.5-.5-.7.7 0 0zM497 165c.5-.5-.7.7 0 0zm7.6 13.9c.4-.4-.7.7 0 0zm-7.6-22.5c10.4.4 22.5-1 31.2 1 .8-.2 1.2-.9 1.1-2.1-11.7-.2-24.8-3.2-32.3 1.1zm35.5 1c7.9 2.6 22.5 2.1 30.1 0 .8-.2 1.2-.9 1-2.1-12-.3-19.4.6-31.1 2.1zm35.4 18.3c.5-.5-.7.7 0 0zm21.5 5.4c.5-.5-.7.7 0 0zm25.8-34.4c2.4.3 4-.2 4.3-2.1-2.5-.3-4.1.2-4.3 2.1zm7.5 7.5c-11.6.6-24 2.7-33.3 3.2-8.5.6-21.6-2.8-24.7 3.3 6.9-2.7 9.8 2.5 14-1.1 3.1-.3 3.3 2.4 6.4 2.1 11.1-3.2 25.3-3.3 39.7-3.2.9-.2 1.3-.9 1.1-2.1-1.7-.1-3.7.1-3.2-2.2zm2.1 17.2c-.2.8-.9 1.2-2.1 1.1-.6 3.4 2 3.3 0 5.3 3.8 2.1 4.7-1.5 7.5-3.2-2.5-.3-2-3.7-5.4-3.2zm5.4-14c-.1 4 5.4 3.7 6.5 1.1-2.3-2.6-4.8 1-6.5-1.1zm7.5 18.3c-5.8 1.9-1.6 2.7-8.6 1.1 1.8 4.3-6.6 3.9-3.2 6.4 1.8-1.6 4.1 1.2 5.4-3.2-.1 3.3 3.2 3.2 6.4 3.2.3-3.9 1.5-4.1 0-7.5zm-6.4-27.9c.2 2.3-.9 3.4-3.2 3.2v-3.2h3.2zm5.4-17.2c-1.9 3.9-4 7.5-8.6 8.6-.2 2.6-.2 5.2 1 6.4-3.3.8-2 .8-5.3 0-.3.9-.1 2.2-1.1 2.2-.9 3.4 3.5 1.5 3.2 4.3-.8.2-2.1 0-2.1 1.1 4.6-1.5 6 .3 11.8 0 1.3-3.5-3.5-.9-2.2-4.3 2.8-2.9 1.2 2.4 5.4 1 1.2-4.4-2.3-4.1-2.1-7.5-3.1-1.5-5.5 2.9-6.5 0 .2-1.2 1.2-1.6 2.2-2.1 3.2-.8 3.9 1.1 6.4 1.1-2.3-4 1.3-9.7-2.1-10.8zm31.1 25.8c-5.2 4.1-14.1 0-22.6 2.1 3.4-4.4 16.7-3.9 22.6-2.1zm37.1-87.3c.9 3.1.9-3.2 0 0m50.5 11c.9 3.1.9-3.1 0 0m-80.6 6.3c-.2-1.4.8-3.9-1.5-3.1-.3 1.8.1 2.9 1.5 3.1m91-1.8c1.3 4.2 1.3-4.2 0 0M874 155.2c3.6 3.3 3.3-3.9 0 0M744.3 86.7c-.8.3-2.1.1-2.1 1.1.8-.2 2.1 0 2.1-1.1m-6.4 12.9c0-3.2 3.2-8.6-1.1-9.6 1.4 4.5-2.8 8.9 1.1 9.6m37.6-2.1c1.6-.2 4 .4 4.3-1.1-.9-.2-1.3-.9-1.1-2.1h-2.1c0 1.4-.5 2.3-1.1 3.2m100.1.7c-2 2.3 1.3 7.7 3.2 5.3-2.4-3.3-.5-2.6 2.2-1 1.8-1.8 1.3-6.8-2.2-6.5v2.2c.7 0 1.3.8 0 1v-1h-3.2m-96.9 7.9c.3-2.2 2.9-2.1 3.2-4.3-3.4.5-3.8-2-7.5-1.1.3 2.4-.2 4-2.1 4.3 1 2.7.9 3.6 0 7.5 1.8 0 2.7.8 3.2 2.1 4.9-2.9-1.8-8.8 2.1-10.7-.1-1.3 1.6-.6 0 0-.1 1.3.3 1.9 1.1 2.2m-4.3 2.1c1.3-4.2 1.3 4.2 0 0m-25.8-4.3c1.6-.6-.1-1.3 0 0m-1 0c-.9 1-1.2 2.4-1.1 4.3 3.2 1.1 1.9-2.4 2.1-4.3h-1m24.7 1.1c-.7-1.6-1.3.1 0 0m40.8 4.3c1.2 4.2 1.2-4.3 0 0m-41.9 5.3c1.2 4.3 1.2-4.2 0 0m4.3 0c-1.6.7.1 1.3 0 0m64.4 31.2c1.3 4.2 1.3-4.3 0 0m-40.8 12.8c5.9-2.2 3.1 4.1 5.4 5.4-.2-2.3 3.8-.5 5.4-1.1 1.3-2.5-.2-2 1-5.3-5.3-2.1-2.8 3.5-6.4 3.2-.1-2.9 1.8-2.2 0-4.3-2 .5-6.5-1.5-5.4 2.1m-3.2 2.2c.2-1.5 1.8-1.8 2.1-3.2-2.2-1-4.8 2.7-2.1 3.2m-8.6 0c-.5 2.2.7 2.8 1.1 4.3-4.7 1.3-6.9-2.7-4.3-5.4-4.8-2.7-7.7 1.2-9.7 4.3 3.4 2.3 8.1 3.3 11.8 5.4-.1-1.6-.2-3.1 1.1-3.2.2 1.9.7 3.5 2.2 4.2 2.1-1.1 9.6-3.1 4.2-5.3.2 1.2-.2 1.9-1 2.1.4 2.1-4.9 1.6-3.2-1 1.3 0 1.4 1.3 3.2 1-1.8-2.8-2.5-4.1 0-6.4-1.8-.3-1.9 1-3.2 1.1 0 .6-.9 1.2-1.1 0h1.1c-.1-1.1-1.4-.9-2.2-1.1"/><path d="M779.8 162.9c1 4.5-3.2.2 0 0-.1-1.3 1.5-.6 0 0m9.7-4.3c-.9.3-2.2.1-2.2 1.1.8-.2 2.1 0 2.2-1.1m-61.3 3.3c1.9 0 2.8-.9 3.3-2.2-1.7.1-3.8-.1-3.3 2.2m10.8 0c1.7-3-4.7-3-4.3-1.1 1.4.3 2 1.5 4.3 1.1m21.5 0c-4.2.2-8 0-10.8-1.1.5 3.2 11.1 3.6 10.8 1.1m-11.9 7.5c-.9-2.7.3-7.5-3.2-7.5 1.8 1.7-.7 7.8 3.2 7.5m12.9-5.4h3.2c.2-1.9-1-2.5-3.2-2.1v2.1m4.3 0c1.9.1 2.8-.8 3.2-2.1-1.6.1-3.7-.2-3.2 2.1m6.5-1.1c1.5-.6-.1-1.3 0 0m23.6-1c-.9 6.5 4.9.7 0 0m6.4 1c0-1-1.8-1.3-2.1 0 .2 1.3 1.2.7 2.1 0m-30 0c-1.6.7.1 1.3 0 0m-3.3 2.2c1.3 4.2 1.3-4.3 0 0m65.6 5.3c-.1-1-1.9-1.3-2.2 0 .2 1.3 1.2.7 2.2 0m-76.3 20.4c-2.6 3.6 3.6-2.6 0 0m90.2 4.3c1.3 4.3 1.3-4.2 0 0m-18.2 1.1c-.9.2-2.2 0-2.2 1.1.8-.3 2.1-.1 2.2-1.1m-21.5 1.1c-.8.2-2.1 0-2.2 1 .9-.2 2.2 0 2.2-1M616.4 92.7c.5-2.7 1.4-3.7-1.1-5.3-2.3 1.8-1.9 3.7-5.4 2.1-.6 2.4 2.1 1.5 2.2 3.2 2.9.1 2.1-1.8 4.3 0m11.8-4.3c0-1.1-1.9-1.3-2.2 0 1.2-.1 1.7 1.6 2.2 0m-20.4 3.2c1.2 4.3 1.2-4.2 0 0m4.3 1.1c-4.3.3.2 4.7 0 0m6.4 3.2c1.3 4.3 1.3-4.2 0 0m-2.1 5.4c.7-2.9-2.3-2.1-3.3-3.2-.7 2.9 2.3 2.1 3.3 3.2m6.4-1.1c-.8.3-2.1.1-2.1 1.1.8-.2 2.1 0 2.1-1.1m0 15.1c.1-2.4.6-10.5-2.1-6.5 3.6 1.7-2.5 6.3 2.1 6.5"/><path d="M620.7 112c-.1-1.1-1.9-1.3-2.2 0 .2 1.3 1.2.7 2.2 0m-16.2 0c-.8.3-2.1.1-2.1 1.1.8-.2 2.1 0 2.1-1.1m10.8 0c-.9 6.5 4.9.7 0 0m-6.5 14c1.3 4.2 1.3-4.3 0 0m20.4 3.2c-1.2.1-1.6-1.6-2.1 0 0 1.1 1.9 1.3 2.1 0m-11.8 1.1c1.6-.7-.1-1.3 0 0m0 0c-1.5.6.1 1.3 0 0m-7.5 4.3v2.1c2.7 1.7 3.2-3.6 1.1-3.2-.1.6-.2 1.3-1.1 1.1m14 6.4c-.9.2-2.1 0-2.2 1.1.9-.3 2.1-.1 2.2-1.1m-3.2 3.2c-2.6 3.6 3.6-2.6 0 0m-1.1 9.7c-.9.2-2.1 0-2.2 1.1.9-.3 2.1-.1 2.2-1.1m4.3 9.6c0-1-1.9-1.3-2.2 0 .3 1.3 1.2.7 2.2 0m-2.2 2.2c-.8.2-2.1 0-2.1 1.1.8-.3 2.1-.1 2.1-1.1m-10.7 3.2c.2-4.7-4.2-.3 0 0m0 0c.6 1.6 1.3-.1 0 0m1.1 12.9c-2.6 3.6 3.6-2.6 0 0m-295.3-7.9c5.8-2.2 3.1 4.1 5.4 5.4-.2-2.3 3.8-.5 5.3-1.1 1.4-2.5-.1-2 1.1-5.3-5.3-2.1-2.9 3.5-6.4 3.2-.1-2.9 1.8-2.2 0-4.3-2.1.5-6.5-1.5-5.4 2.1m-3.2 2.2c.2-1.5 1.7-1.8 2.1-3.2-2.2-1-4.8 2.7-2.1 3.2m-8.6 0c-.5 2.2.7 2.8 1.1 4.3-4.8 1.3-6.9-2.7-4.3-5.4-4.8-2.7-7.7 1.2-9.7 4.3 3.4 2.3 8.1 3.3 11.8 5.4-.1-1.6-.2-3.1 1.1-3.3.1 2 .7 3.6 2.1 4.3 2.2-1.1 9.7-3.1 4.3-5.3.2 1.2-.2 1.9-1 2.1.4 2.1-4.9 1.6-3.3-1.1 1.4.1 1.5 1.4 3.3 1.1-1.8-2.9-2.5-4.1 0-6.4-1.8-.3-1.9 1-3.3 1.1 0 .6-.8 1.2-1 0h1c0-1.1-1.3-.9-2.1-1.1"/><path d="M297.5 178.2c1 4.5-3.2.2 0 0-.1-1.3 1.5-.6 0 0m9.6-4.3c-.8.3-2.1.1-2.1 1.1.8-.2 2.1 0 2.1-1.1m-61.2 3.3c1.9 0 2.8-.9 3.2-2.2-1.6.1-3.7-.1-3.2 2.2m6.5-1.1c1.4.3 2 1.5 4.3 1.1 1.7-3-4.7-3-4.3-1.1zm25.7 1.1c-4.1.2-7.9 0-10.7-1.1.5 3.2 11.1 3.6 10.7 1.1m296.6 90.4c-4.1.3-7.9 0-10.7-1.6.5 4.8 11.1 5.2 10.7 1.6m-308.4-82.9c-.9-2.7.3-7.5-3.2-7.5 1.8 1.7-.7 7.8 3.2 7.5m12.9-5.4h3.2c.2-1.9-1-2.5-3.2-2.1v2.1m4.3 0c1.9.1 2.8-.8 3.2-2.1-1.7.1-3.7-.2-3.2 2.1m6.5-1.1c1.5-.6-.2-1.3 0 0m23.6-1c-.9 6.5 4.9.7 0 0m6.4 1c0-1.1-1.9-1.3-2.1 0 .2 1.3 1.2.7 2.1 0m-30 0c-1.6.7.1 1.3 0 0m-3.3 2.2c1.3 4.2 1.3-4.3 0 0m65.5 5.3c0-1-1.8-1.3-2.1 0 .2 1.3 1.2.7 2.1 0m-136.1-36.1c-3.6-3.2-3.3 4 0 0m-6.6 4.3c-3.5.7-5-.7-7.5-1 .3 3.6 6.4 3.8 7.5 1m4.4 22.6c0-1.1-1.9-1.4-2.1 0 1.2-.1 1.6 1.5 2.1 0M624 22.1c-8.8-1-.4 4.3 0 0z"/><path d="M320 113.5h-.8l-7.4 56.4h16.3l-8.1-56.4zm13 86.3l-2.7-16.1h-20.5l-2.5 16.1h-14.9l19.2-108.4h18.7l19.3 108.4H333zm45 0h-14.2l-18.5-75.7h15.6l10.6 52.8h.3l11-52.8h13.8L378 199.8m46.1-65.9c-6.4 0-10 4.9-10 11.4v9.2H433c0-3.2.1-6.5.1-8.7 0-6.5-2.3-11.9-9-11.9zm22.9 32h-32.9v11.7c0 6.8 2.7 11.7 10.4 11.7 6.9 0 9.1-3.7 9.1-10.3 0-1.8 0-4.4-.2-5.7h12.5c.1 1.7.3 5 .3 8 0 12.3-6.9 20.3-22 20.3-16.7 0-25.5-7.7-25.5-23.9v-30.2c0-17.3 8.5-25.4 25.3-25.4 14.7 0 23.3 8.1 23.3 26.9 0 4.6 0 12.6-.3 16.9zm42.6 33.9v-51.2c0-8.3-3.2-12.1-9-12.1-5.5 0-11.2 5.8-11.2 14.5v48.8h-15.5v-67.7c0-2.9-.4-5.7-1-8h14.3c.5 2.1 1 6.5 1 9.8h.5c4.6-7 10.4-12 20-12 10.1 0 16.2 7 16.2 20.2v57.7h-15.3m61.3 0c-.5-1.5-1.1-4.4-1.3-6.7h-.2c-4.1 4.7-9.1 8.5-18 8.5-10.3 0-19.3-6-19.3-19.7v-57.8h15.3v53.8c0 7.4 2.2 12.2 9.5 12.2 6.6 0 10.7-6.1 10.7-13.4v-52.6h15.5V190c0 2.9.3 6.4 1.2 9.8h-13.4m45.2-65.9c-6.5 0-10.1 4.9-10.1 11.4v9.2h19c0-3.2.1-6.5.1-8.7 0-6.5-2.3-11.9-9-11.9zm22.9 32h-33v11.7c0 6.8 2.8 11.7 10.5 11.7 6.9 0 9-3.7 9-10.3 0-1.8 0-4.4-.1-5.7h12.5c.1 1.7.2 5 .2 8 0 12.3-6.8 20.3-21.9 20.3-16.8 0-25.5-7.7-25.5-23.9v-30.2c0-17.3 8.5-25.4 25.2-25.4 14.8 0 23.4 8.1 23.4 26.9 0 4.6 0 12.6-.3 16.9zm33.7 36.1c-14.6 0-26.2-7.6-26.2-29v-54.1c0-21.4 11.9-29.4 26.3-29.4s24.5 6.6 24.5 25.2c0 4.7-.3 9.7-.5 12.4H663c.1-2.3.6-6.6.6-9.7 0-10.9-3.2-14-9.8-14-7.9 0-10.9 6.1-10.9 11.7V176c0 7.1 3.3 11.9 10.9 11.9 6.5 0 9.9-3.5 9.9-13.9 0-3-.3-7.5-.4-9.8h13.5c.2 2.4.5 7.1.5 12.4 0 18.7-10.4 25.4-24.6 25.4m65.2-55c0-7.4-4-11.8-10-11.8-5.8 0-10.4 4.4-10.4 12v29.1c0 7.3 4.3 12 10.5 12 6 0 9.9-5.3 9.9-12V147zm-10 54.4c-14.1 0-25.7-8.3-25.7-24.5v-30.1c0-16.2 11-24.7 25.7-24.7 14.1 0 25.5 8.1 25.5 24.7v30.1c0 15.7-10.5 24.5-25.5 24.5zm67.7-54.9c0-5.3-2.5-12-10.1-12-6.8 0-10.2 5.6-10.2 11.8v32.4c0 6 4 10.4 10.3 10.4 5.7 0 10-4.8 10-10.8v-31.8zm2.6 53.3c-.5-1.8-1.1-4.5-1.5-7.8h-.3c-2.9 3.8-8.5 8.8-17.4 8.8-11.9 0-19-7.9-19-20.9v-36.7c0-14.3 8.8-21.1 18.7-21.1 9.6 0 14.7 4.3 16.8 7.4h.1V92.7H791v97.4c0 3 .7 7.3 1.6 9.7h-14.4zm46.2-65.9c-6.5 0-10.1 4.9-10.1 11.4v9.2h19c0-3.2.1-6.5.1-8.7 0-6.5-2.3-11.9-9-11.9zm22.9 32h-33v11.7c0 6.8 2.8 11.7 10.5 11.7 6.9 0 9-3.7 9-10.3 0-1.8 0-4.4-.1-5.7h12.5c.1 1.7.2 5 .2 8 0 12.3-6.8 20.3-21.9 20.3-16.8 0-25.5-7.7-25.5-23.9v-30.2c0-17.3 8.5-25.4 25.2-25.4 14.8 0 23.4 8.1 23.4 26.9 0 4.6 0 12.6-.3 16.9z"/></svg>